<?xml version="1.0" encoding="utf-8" standalone="no"?>
<!DOCTYPE svg PUBLIC "-//W3C//DTD SVG 1.1//EN"
  "http://www.w3.org/Graphics/SVG/1.1/DTD/svg11.dtd">
<svg xmlns:xlink="http://www.w3.org/1999/xlink" width="360pt" height="295.2pt" viewBox="0 0 360 295.2" xmlns="http://www.w3.org/2000/svg" version="1.1">
 <metadata>
  <rdf:RDF xmlns:dc="http://purl.org/dc/elements/1.1/" xmlns:cc="http://creativecommons.org/ns#" xmlns:rdf="http://www.w3.org/1999/02/22-rdf-syntax-ns#">
   <cc:Work>
    <dc:type rdf:resource="http://purl.org/dc/dcmitype/StillImage"/>
    <dc:date>2024-07-06T21:43:37.412452</dc:date>
    <dc:format>image/svg+xml</dc:format>
    <dc:creator>
     <cc:Agent>
      <dc:title>Matplotlib v3.5.3, https://matplotlib.org/</dc:title>
     </cc:Agent>
    </dc:creator>
   </cc:Work>
  </rdf:RDF>
 </metadata>
 <defs>
  <style type="text/css">*{stroke-linejoin: round; stroke-linecap: butt}</style>
 </defs>
 <g id="figure_1">
  <g id="patch_1">
   <path d="M 0 295.2 
L 360 295.2 
L 360 0 
L 0 0 
z
" style="fill: #ffffff"/>
  </g>
  <g id="axes_1">
   <g id="patch_2">
    <path d="M 54 250.92 
L 342 250.92 
L 342 14.76 
L 54 14.76 
z
" style="fill: #ffffff"/>
   </g>
   <g id="matplotlib.axis_1">
    <g id="xtick_1">
     <g id="line2d_1">
      <defs>
       <path id="m0ff7529763" d="M 0 0 
L 0 3.5 
" style="stroke: #000000; stroke-width: 0.8"/>
      </defs>
      <g>
       <use xlink:href="#m0ff7529763" x="67.090909" y="250.92" style="stroke: #000000; stroke-width: 0.8"/>
      </g>
     </g>
     <g id="text_1">
      <!-- 0 -->
      <g transform="translate(63.909659 265.518438)scale(0.1 -0.1)">
       <defs>
        <path id="DejaVuSans-30" d="M 2034 4250 
Q 1547 4250 1301 3770 
Q 1056 3291 1056 2328 
Q 1056 1369 1301 889 
Q 1547 409 2034 409 
Q 2525 409 2770 889 
Q 3016 1369 3016 2328 
Q 3016 3291 2770 3770 
Q 2525 4250 2034 4250 
z
M 2034 4750 
Q 2819 4750 3233 4129 
Q 3647 3509 3647 2328 
Q 3647 1150 3233 529 
Q 2819 -91 2034 -91 
Q 1250 -91 836 529 
Q 422 1150 422 2328 
Q 422 3509 836 4129 
Q 1250 4750 2034 4750 
z
" transform="scale(0.015625)"/>
       </defs>
       <use xlink:href="#DejaVuSans-30"/>
      </g>
     </g>
    </g>
    <g id="xtick_2">
     <g id="line2d_2">
      <g>
       <use xlink:href="#m0ff7529763" x="116.541883" y="250.92" style="stroke: #000000; stroke-width: 0.8"/>
      </g>
     </g>
     <g id="text_2">
      <!-- 200 -->
      <g transform="translate(106.998133 265.518438)scale(0.1 -0.1)">
       <defs>
        <path id="DejaVuSans-32" d="M 1228 531 
L 3431 531 
L 3431 0 
L 469 0 
L 469 531 
Q 828 903 1448 1529 
Q 2069 2156 2228 2338 
Q 2531 2678 2651 2914 
Q 2772 3150 2772 3378 
Q 2772 3750 2511 3984 
Q 2250 4219 1831 4219 
Q 1534 4219 1204 4116 
Q 875 4013 500 3803 
L 500 4441 
Q 881 4594 1212 4672 
Q 1544 4750 1819 4750 
Q 2544 4750 2975 4387 
Q 3406 4025 3406 3419 
Q 3406 3131 3298 2873 
Q 3191 2616 2906 2266 
Q 2828 2175 2409 1742 
Q 1991 1309 1228 531 
z
" transform="scale(0.015625)"/>
       </defs>
       <use xlink:href="#DejaVuSans-32"/>
       <use xlink:href="#DejaVuSans-30" x="63.623047"/>
       <use xlink:href="#DejaVuSans-30" x="127.246094"/>
      </g>
     </g>
    </g>
    <g id="xtick_3">
     <g id="line2d_3">
      <g>
       <use xlink:href="#m0ff7529763" x="165.992857" y="250.92" style="stroke: #000000; stroke-width: 0.8"/>
      </g>
     </g>
     <g id="text_3">
      <!-- 400 -->
      <g transform="translate(156.449107 265.518438)scale(0.1 -0.1)">
       <defs>
        <path id="DejaVuSans-34" d="M 2419 4116 
L 825 1625 
L 2419 1625 
L 2419 4116 
z
M 2253 4666 
L 3047 4666 
L 3047 1625 
L 3713 1625 
L 3713 1100 
L 3047 1100 
L 3047 0 
L 2419 0 
L 2419 1100 
L 313 1100 
L 313 1709 
L 2253 4666 
z
" transform="scale(0.015625)"/>
       </defs>
       <use xlink:href="#DejaVuSans-34"/>
       <use xlink:href="#DejaVuSans-30" x="63.623047"/>
       <use xlink:href="#DejaVuSans-30" x="127.246094"/>
      </g>
     </g>
    </g>
    <g id="xtick_4">
     <g id="line2d_4">
      <g>
       <use xlink:href="#m0ff7529763" x="215.443831" y="250.92" style="stroke: #000000; stroke-width: 0.8"/>
      </g>
     </g>
     <g id="text_4">
      <!-- 600 -->
      <g transform="translate(205.900081 265.518438)scale(0.1 -0.1)">
       <defs>
        <path id="DejaVuSans-36" d="M 2113 2584 
Q 1688 2584 1439 2293 
Q 1191 2003 1191 1497 
Q 1191 994 1439 701 
Q 1688 409 2113 409 
Q 2538 409 2786 701 
Q 3034 994 3034 1497 
Q 3034 2003 2786 2293 
Q 2538 2584 2113 2584 
z
M 3366 4563 
L 3366 3988 
Q 3128 4100 2886 4159 
Q 2644 4219 2406 4219 
Q 1781 4219 1451 3797 
Q 1122 3375 1075 2522 
Q 1259 2794 1537 2939 
Q 1816 3084 2150 3084 
Q 2853 3084 3261 2657 
Q 3669 2231 3669 1497 
Q 3669 778 3244 343 
Q 2819 -91 2113 -91 
Q 1303 -91 875 529 
Q 447 1150 447 2328 
Q 447 3434 972 4092 
Q 1497 4750 2381 4750 
Q 2619 4750 2861 4703 
Q 3103 4656 3366 4563 
z
" transform="scale(0.015625)"/>
       </defs>
       <use xlink:href="#DejaVuSans-36"/>
       <use xlink:href="#DejaVuSans-30" x="63.623047"/>
       <use xlink:href="#DejaVuSans-30" x="127.246094"/>
      </g>
     </g>
    </g>
    <g id="xtick_5">
     <g id="line2d_5">
      <g>
       <use xlink:href="#m0ff7529763" x="264.894805" y="250.92" style="stroke: #000000; stroke-width: 0.8"/>
      </g>
     </g>
     <g id="text_5">
      <!-- 800 -->
      <g transform="translate(255.351055 265.518438)scale(0.1 -0.1)">
       <defs>
        <path id="DejaVuSans-38" d="M 2034 2216 
Q 1584 2216 1326 1975 
Q 1069 1734 1069 1313 
Q 1069 891 1326 650 
Q 1584 409 2034 409 
Q 2484 409 2743 651 
Q 3003 894 3003 1313 
Q 3003 1734 2745 1975 
Q 2488 2216 2034 2216 
z
M 1403 2484 
Q 997 2584 770 2862 
Q 544 3141 544 3541 
Q 544 4100 942 4425 
Q 1341 4750 2034 4750 
Q 2731 4750 3128 4425 
Q 3525 4100 3525 3541 
Q 3525 3141 3298 2862 
Q 3072 2584 2669 2484 
Q 3125 2378 3379 2068 
Q 3634 1759 3634 1313 
Q 3634 634 3220 271 
Q 2806 -91 2034 -91 
Q 1263 -91 848 271 
Q 434 634 434 1313 
Q 434 1759 690 2068 
Q 947 2378 1403 2484 
z
M 1172 3481 
Q 1172 3119 1398 2916 
Q 1625 2713 2034 2713 
Q 2441 2713 2670 2916 
Q 2900 3119 2900 3481 
Q 2900 3844 2670 4047 
Q 2441 4250 2034 4250 
Q 1625 4250 1398 4047 
Q 1172 3844 1172 3481 
z
" transform="scale(0.015625)"/>
       </defs>
       <use xlink:href="#DejaVuSans-38"/>
       <use xlink:href="#DejaVuSans-30" x="63.623047"/>
       <use xlink:href="#DejaVuSans-30" x="127.246094"/>
      </g>
     </g>
    </g>
    <g id="xtick_6">
     <g id="line2d_6">
      <g>
       <use xlink:href="#m0ff7529763" x="314.345779" y="250.92" style="stroke: #000000; stroke-width: 0.8"/>
      </g>
     </g>
     <g id="text_6">
      <!-- 1000 -->
      <g transform="translate(301.620779 265.518438)scale(0.1 -0.1)">
       <defs>
        <path id="DejaVuSans-31" d="M 794 531 
L 1825 531 
L 1825 4091 
L 703 3866 
L 703 4441 
L 1819 4666 
L 2450 4666 
L 2450 531 
L 3481 531 
L 3481 0 
L 794 0 
L 794 531 
z
" transform="scale(0.015625)"/>
       </defs>
       <use xlink:href="#DejaVuSans-31"/>
       <use xlink:href="#DejaVuSans-30" x="63.623047"/>
       <use xlink:href="#DejaVuSans-30" x="127.246094"/>
       <use xlink:href="#DejaVuSans-30" x="190.869141"/>
      </g>
     </g>
    </g>
    <g id="text_7">
     <!-- z ($\AA$) -->
     <g transform="translate(181.83 283.666562)scale(0.14 -0.14)">
      <defs>
       <path id="DejaVuSans-7a" d="M 353 3500 
L 3084 3500 
L 3084 2975 
L 922 459 
L 3084 459 
L 3084 0 
L 275 0 
L 275 525 
L 2438 3041 
L 353 3041 
L 353 3500 
z
" transform="scale(0.015625)"/>
       <path id="DejaVuSans-20" transform="scale(0.015625)"/>
       <path id="DejaVuSans-28" d="M 1984 4856 
Q 1566 4138 1362 3434 
Q 1159 2731 1159 2009 
Q 1159 1288 1364 580 
Q 1569 -128 1984 -844 
L 1484 -844 
Q 1016 -109 783 600 
Q 550 1309 550 2009 
Q 550 2706 781 3412 
Q 1013 4119 1484 4856 
L 1984 4856 
z
" transform="scale(0.015625)"/>
       <path id="DejaVuSans-Oblique-c5" d="M 3188 5081 
Q 3188 5278 3048 5417 
Q 2909 5556 2713 5556 
Q 2513 5556 2377 5420 
Q 2241 5284 2241 5081 
Q 2241 4884 2377 4746 
Q 2513 4609 2713 4609 
Q 2909 4609 3048 4746 
Q 3188 4884 3188 5081 
z
M 2203 4397 
Q 2034 4513 1945 4689 
Q 1856 4866 1856 5081 
Q 1856 5438 2106 5689 
Q 2356 5941 2713 5941 
Q 3069 5941 3320 5689 
Q 3572 5438 3572 5081 
Q 3572 4834 3458 4643 
Q 3344 4453 3128 4341 
L 3938 0 
L 3278 0 
L 3084 1197 
L 984 1197 
L 325 0 
L -341 0 
L 2203 4397 
z
M 2584 4044 
L 1275 1722 
L 2988 1722 
L 2584 4044 
z
" transform="scale(0.015625)"/>
       <path id="DejaVuSans-29" d="M 513 4856 
L 1013 4856 
Q 1481 4119 1714 3412 
Q 1947 2706 1947 2009 
Q 1947 1309 1714 600 
Q 1481 -109 1013 -844 
L 513 -844 
Q 928 -128 1133 580 
Q 1338 1288 1338 2009 
Q 1338 2731 1133 3434 
Q 928 4138 513 4856 
z
" transform="scale(0.015625)"/>
      </defs>
      <use xlink:href="#DejaVuSans-7a" transform="translate(0 0.171875)"/>
      <use xlink:href="#DejaVuSans-20" transform="translate(52.490234 0.171875)"/>
      <use xlink:href="#DejaVuSans-28" transform="translate(84.277344 0.171875)"/>
      <use xlink:href="#DejaVuSans-Oblique-c5" transform="translate(123.291016 0.171875)"/>
      <use xlink:href="#DejaVuSans-29" transform="translate(191.699219 0.171875)"/>
     </g>
    </g>
   </g>
   <g id="matplotlib.axis_2">
    <g id="ytick_1">
     <g id="line2d_7">
      <defs>
       <path id="m4cc5806701" d="M 0 0 
L -3.5 0 
" style="stroke: #000000; stroke-width: 0.8"/>
      </defs>
      <g>
       <use xlink:href="#m4cc5806701" x="54" y="219.235208" style="stroke: #000000; stroke-width: 0.8"/>
      </g>
     </g>
     <g id="text_8">
      <!-- −2 -->
      <g transform="translate(32.257812 223.034427)scale(0.1 -0.1)">
       <defs>
        <path id="DejaVuSans-2212" d="M 678 2272 
L 4684 2272 
L 4684 1741 
L 678 1741 
L 678 2272 
z
" transform="scale(0.015625)"/>
       </defs>
       <use xlink:href="#DejaVuSans-2212"/>
       <use xlink:href="#DejaVuSans-32" x="83.789062"/>
      </g>
     </g>
    </g>
    <g id="ytick_2">
     <g id="line2d_8">
      <g>
       <use xlink:href="#m4cc5806701" x="54" y="173.56944" style="stroke: #000000; stroke-width: 0.8"/>
      </g>
     </g>
     <g id="text_9">
      <!-- 0 -->
      <g transform="translate(40.6375 177.368658)scale(0.1 -0.1)">
       <use xlink:href="#DejaVuSans-30"/>
      </g>
     </g>
    </g>
    <g id="ytick_3">
     <g id="line2d_9">
      <g>
       <use xlink:href="#m4cc5806701" x="54" y="127.903671" style="stroke: #000000; stroke-width: 0.8"/>
      </g>
     </g>
     <g id="text_10">
      <!-- 2 -->
      <g transform="translate(40.6375 131.70289)scale(0.1 -0.1)">
       <use xlink:href="#DejaVuSans-32"/>
      </g>
     </g>
    </g>
    <g id="ytick_4">
     <g id="line2d_10">
      <g>
       <use xlink:href="#m4cc5806701" x="54" y="82.237902" style="stroke: #000000; stroke-width: 0.8"/>
      </g>
     </g>
     <g id="text_11">
      <!-- 4 -->
      <g transform="translate(40.6375 86.037121)scale(0.1 -0.1)">
       <use xlink:href="#DejaVuSans-34"/>
      </g>
     </g>
    </g>
    <g id="ytick_5">
     <g id="line2d_11">
      <g>
       <use xlink:href="#m4cc5806701" x="54" y="36.572133" style="stroke: #000000; stroke-width: 0.8"/>
      </g>
     </g>
     <g id="text_12">
      <!-- 6 -->
      <g transform="translate(40.6375 40.371352)scale(0.1 -0.1)">
       <use xlink:href="#DejaVuSans-36"/>
      </g>
     </g>
    </g>
    <g id="text_13">
     <!-- SLD ($10^{-6}/\AA^2$) -->
     <g transform="translate(25.34625 181.84)rotate(-90)scale(0.14 -0.14)">
      <defs>
       <path id="DejaVuSans-53" d="M 3425 4513 
L 3425 3897 
Q 3066 4069 2747 4153 
Q 2428 4238 2131 4238 
Q 1616 4238 1336 4038 
Q 1056 3838 1056 3469 
Q 1056 3159 1242 3001 
Q 1428 2844 1947 2747 
L 2328 2669 
Q 3034 2534 3370 2195 
Q 3706 1856 3706 1288 
Q 3706 609 3251 259 
Q 2797 -91 1919 -91 
Q 1588 -91 1214 -16 
Q 841 59 441 206 
L 441 856 
Q 825 641 1194 531 
Q 1563 422 1919 422 
Q 2459 422 2753 634 
Q 3047 847 3047 1241 
Q 3047 1584 2836 1778 
Q 2625 1972 2144 2069 
L 1759 2144 
Q 1053 2284 737 2584 
Q 422 2884 422 3419 
Q 422 4038 858 4394 
Q 1294 4750 2059 4750 
Q 2388 4750 2728 4690 
Q 3069 4631 3425 4513 
z
" transform="scale(0.015625)"/>
       <path id="DejaVuSans-4c" d="M 628 4666 
L 1259 4666 
L 1259 531 
L 3531 531 
L 3531 0 
L 628 0 
L 628 4666 
z
" transform="scale(0.015625)"/>
       <path id="DejaVuSans-44" d="M 1259 4147 
L 1259 519 
L 2022 519 
Q 2988 519 3436 956 
Q 3884 1394 3884 2338 
Q 3884 3275 3436 3711 
Q 2988 4147 2022 4147 
L 1259 4147 
z
M 628 4666 
L 1925 4666 
Q 3281 4666 3915 4102 
Q 4550 3538 4550 2338 
Q 4550 1131 3912 565 
Q 3275 0 1925 0 
L 628 0 
L 628 4666 
z
" transform="scale(0.015625)"/>
       <path id="DejaVuSans-2f" d="M 1625 4666 
L 2156 4666 
L 531 -594 
L 0 -594 
L 1625 4666 
z
" transform="scale(0.015625)"/>
      </defs>
      <use xlink:href="#DejaVuSans-53" transform="translate(0 0.171875)"/>
      <use xlink:href="#DejaVuSans-4c" transform="translate(63.476562 0.171875)"/>
      <use xlink:href="#DejaVuSans-44" transform="translate(119.189453 0.171875)"/>
      <use xlink:href="#DejaVuSans-20" transform="translate(196.191406 0.171875)"/>
      <use xlink:href="#DejaVuSans-28" transform="translate(227.978516 0.171875)"/>
      <use xlink:href="#DejaVuSans-31" transform="translate(266.992188 0.171875)"/>
      <use xlink:href="#DejaVuSans-30" transform="translate(330.615234 0.171875)"/>
      <use xlink:href="#DejaVuSans-2212" transform="translate(395.195312 38.453125)scale(0.7)"/>
      <use xlink:href="#DejaVuSans-36" transform="translate(453.847656 38.453125)scale(0.7)"/>
      <use xlink:href="#DejaVuSans-2f" transform="translate(501.118164 0.171875)"/>
      <use xlink:href="#DejaVuSans-Oblique-c5" transform="translate(534.80957 0.171875)"/>
      <use xlink:href="#DejaVuSans-32" transform="translate(613.023607 38.453125)scale(0.7)"/>
      <use xlink:href="#DejaVuSans-29" transform="translate(660.294115 0.171875)"/>
     </g>
    </g>
   </g>
   <g id="line2d_12">
    <path d="M 257.106277 31.463254 
L 254.609002 31.663006 
L 253.051297 32.000195 
L 251.815022 32.493586 
L 250.751827 33.157406 
L 249.762807 34.038217 
L 248.773788 35.229572 
L 247.784768 36.777561 
L 246.721572 38.87044 
L 245.534749 41.727942 
L 244.125396 45.738646 
L 241.751749 53.305384 
L 239.798436 59.205551 
L 238.661063 61.977457 
L 237.845122 63.441107 
L 237.226985 64.150152 
L 236.732475 64.410696 
L 236.312142 64.383651 
L 235.916534 64.125972 
L 235.471476 63.543819 
L 234.95224 62.448848 
L 234.358829 60.633245 
L 233.64179 57.664572 
L 232.726946 52.847081 
L 229.191202 33.108102 
L 228.375261 30.273882 
L 227.633496 28.439297 
L 226.916457 27.236542 
L 226.224143 26.488371 
L 225.482379 26.007245 
L 224.592261 25.707443 
L 223.355987 25.548169 
L 220.784536 25.496137 
L 174.745679 25.494548 
L 103.115944 25.60512 
L 102.077473 25.851003 
L 101.360434 26.243802 
L 100.767022 26.825818 
L 100.223062 27.679348 
L 99.679101 28.97462 
L 99.13514 30.876396 
L 98.566454 33.723149 
L 97.973042 37.887546 
L 97.33018 44.088034 
L 96.637866 53.058737 
L 95.871376 66.009486 
L 94.956533 85.494218 
L 93.695533 117.651748 
L 91.445514 175.229909 
L 90.456494 194.579281 
L 89.615828 206.880184 
L 88.874063 214.703407 
L 88.181749 219.807943 
L 87.538887 223.02236 
L 86.92075 225.041907 
L 86.376789 226.141658 
L 85.907005 226.66333 
L 85.511397 226.809402 
L 85.16524 226.701485 
L 84.819083 226.338945 
L 84.448201 225.607398 
L 84.027868 224.23782 
L 83.582809 221.987489 
L 83.088299 218.263228 
L 82.544338 212.351377 
L 81.926201 203.010738 
L 81.184437 188.148668 
L 80.022339 159.520673 
L 78.662437 127.456789 
L 77.895947 114.332563 
L 77.302535 107.602334 
L 76.882202 104.897789 
L 76.585496 104.119024 
L 76.412418 104.114376 
L 76.239339 104.440431 
L 75.992084 105.457132 
L 75.621202 108.043524 
L 74.904163 115.055287 
L 74.137673 121.704095 
L 73.643163 124.248938 
L 73.22283 125.413725 
L 72.802497 125.971512 
L 72.332712 126.212965 
L 72.036006 126.268704 
L 72.036006 126.268704 
" clip-path="url(#p65f66b56b6)" style="fill: none; stroke: #1f77b4; stroke-width: 2; stroke-linecap: square"/>
   </g>
   <g id="line2d_13">
    <path d="M 323.76619 31.45998 
L 316.793602 31.654967 
L 312.540819 31.986802 
L 309.252329 32.460153 
L 306.458349 33.083372 
L 303.961075 33.864819 
L 301.612153 34.832283 
L 299.337408 36.011946 
L 297.087389 37.430458 
L 294.763193 39.162123 
L 292.265919 41.308497 
L 289.422488 44.059434 
L 285.614763 48.082322 
L 278.938882 55.156589 
L 276.021274 57.891273 
L 273.499275 59.959143 
L 271.125628 61.621515 
L 268.826158 62.962319 
L 266.526687 64.047569 
L 264.15304 64.923326 
L 261.58159 65.632079 
L 258.243649 66.298529 
L 255.696924 66.879273 
L 254.411199 67.400687 
L 253.397454 68.050353 
L 252.482611 68.908801 
L 251.617219 70.035801 
L 250.751827 71.537341 
L 249.836983 73.590461 
L 248.847964 76.382487 
L 247.710592 80.296891 
L 246.227062 86.272101 
L 242.79022 100.39005 
L 241.603396 104.18988 
L 240.614377 106.668449 
L 239.77371 108.226181 
L 239.081397 109.075238 
L 238.562161 109.402519 
L 238.141828 109.430199 
L 237.74622 109.222319 
L 237.350613 108.743747 
L 236.905554 107.81974 
L 236.411044 106.223914 
L 235.867083 103.656529 
L 235.248946 99.568026 
L 234.531907 93.172214 
L 233.666515 83.276983 
L 232.133535 62.559802 
L 230.847809 46.545654 
L 229.982417 38.354517 
L 229.240653 33.302337 
L 228.573065 30.174546 
L 227.954927 28.254079 
L 227.361516 27.075473 
L 226.768104 26.356711 
L 226.125241 25.917573 
L 225.334026 25.657969 
L 224.147203 25.529722 
L 221.007066 25.498319 
L 106.379708 25.576528 
L 104.94563 25.79866 
L 104.030787 26.156164 
L 103.313748 26.667014 
L 102.670885 27.397904 
L 102.052748 28.45084 
L 101.434611 29.97283 
L 100.816473 32.111816 
L 100.173611 35.170263 
L 99.481297 39.639613 
L 98.764258 45.802832 
L 97.973042 54.67496 
L 97.10765 67.054043 
L 96.093905 85.026362 
L 94.783455 112.6797 
L 91.445514 185.091994 
L 90.382318 202.454526 
L 89.467475 214.016776 
L 88.626808 221.98164 
L 87.860318 227.287482 
L 87.118554 230.95062 
L 86.42624 233.334204 
L 85.758652 234.894441 
L 85.214691 235.662076 
L 84.89326 235.790735 
L 84.67073 235.623817 
L 84.448201 235.118645 
L 84.200946 233.956208 
L 83.90424 231.311377 
L 83.582809 226.243905 
L 83.187201 215.903469 
L 82.692691 196.289865 
L 81.184437 131.734361 
L 80.739378 123.248012 
L 80.34377 119.505508 
L 79.997613 118.00891 
L 79.651456 117.380739 
L 79.280574 117.148011 
L 78.711888 117.095221 
L 77.623967 117.248326 
L 76.733849 117.577723 
L 75.967359 118.097985 
L 75.200869 118.898134 
L 74.310751 120.174858 
L 71.244791 124.91531 
L 70.42885 125.588353 
L 69.588183 125.987612 
L 68.574438 126.206349 
L 67.090909 126.293025 
L 67.090909 126.293025 
" clip-path="url(#p65f66b56b6)" style="fill: none; stroke: #ff7f0e; stroke-width: 2; stroke-linecap: square"/>
   </g>
   <g id="line2d_14">
    <path d="M 310.587505 31.456275 
L 305.197349 31.646944 
L 301.933585 31.975874 
L 299.411585 32.448151 
L 297.260468 33.074721 
L 295.307154 33.876225 
L 293.477468 34.867212 
L 291.672507 36.099986 
L 289.842821 37.622696 
L 287.914233 39.521634 
L 285.738391 41.98952 
L 283.018587 45.435444 
L 275.922372 54.59488 
L 273.721804 56.974527 
L 271.743765 58.795354 
L 269.864628 60.227025 
L 268.010216 61.360889 
L 266.131079 62.250323 
L 264.128315 62.950153 
L 261.878296 63.494044 
L 258.738159 63.996487 
L 256.191434 64.477948 
L 254.856257 64.95578 
L 253.793061 65.572783 
L 252.853493 66.379636 
L 251.963375 67.445528 
L 251.073258 68.875343 
L 250.158415 70.790117 
L 249.194121 73.351595 
L 248.130925 76.847545 
L 246.919376 81.636139 
L 245.287494 89.084077 
L 242.419337 102.240069 
L 241.356141 106.023973 
L 240.564926 108.096224 
L 239.946789 109.16461 
L 239.452279 109.622005 
L 239.056671 109.710679 
L 238.685789 109.556177 
L 238.290181 109.126186 
L 237.820397 108.246569 
L 237.276436 106.713343 
L 236.633573 104.180832 
L 235.891809 100.307231 
L 235.001691 94.41339 
L 233.864319 85.265786 
L 231.861554 66.932433 
L 230.081319 51.527253 
L 228.894496 43.127046 
L 227.880751 37.478685 
L 226.965908 33.590989 
L 226.125241 30.933666 
L 225.3093 29.064565 
L 224.518085 27.790071 
L 223.726869 26.922514 
L 222.886203 26.326085 
L 221.921909 25.921813 
L 220.71036 25.667874 
L 218.855948 25.533847 
L 214.232282 25.498495 
L 106.453884 25.570274 
L 104.995081 25.783116 
L 104.055512 26.137276 
L 103.313748 26.657288 
L 102.670885 27.38264 
L 102.052748 28.427921 
L 101.434611 29.939305 
L 100.816473 32.064033 
L 100.173611 35.103039 
L 99.506023 39.363237 
L 98.788983 45.433895 
L 97.997768 54.188081 
L 97.132376 66.426059 
L 96.143356 83.756984 
L 94.857631 110.60282 
L 91.346612 186.250467 
L 90.308141 202.854692 
L 89.393298 214.150904 
L 88.552632 221.898595 
L 87.786142 227.039141 
L 87.044377 230.57487 
L 86.352063 232.867057 
L 85.684475 234.358299 
L 85.16524 235.047958 
L 84.868534 235.15762 
L 84.646005 235.000539 
L 84.423475 234.518869 
L 84.176221 233.410469 
L 83.879515 230.896744 
L 83.558083 226.104407 
L 83.162476 216.388873 
L 82.64324 197.056007 
L 81.233888 140.81022 
L 80.788829 132.356857 
L 80.393221 128.530277 
L 80.022339 126.89108 
L 79.676182 126.256611 
L 79.3053 126.01021 
L 78.711888 125.923905 
L 76.214614 125.951113 
L 72.45634 126.179304 
L 68.994772 126.298382 
L 67.090909 126.304844 
L 67.090909 126.304844 
" clip-path="url(#p65f66b56b6)" style="fill: none; stroke: #2ca02c; stroke-width: 2; stroke-linecap: square"/>
   </g>
   <g id="line2d_15">
    <path d="M 305.419878 31.457042 
L 300.400604 31.648108 
L 297.35937 31.975996 
L 295.010448 32.445306 
L 293.007684 33.066828 
L 291.177998 33.867018 
L 289.447214 34.86894 
L 287.741155 36.118692 
L 286.010371 37.668203 
L 284.180685 39.611737 
L 282.12847 42.128197 
L 279.532293 45.691057 
L 272.856412 55.025814 
L 270.754745 57.481398 
L 268.875608 59.343474 
L 267.095373 60.798041 
L 265.364589 61.930319 
L 263.584354 62.829611 
L 261.705217 63.52737 
L 259.628276 64.057552 
L 257.056826 64.470655 
L 253.570532 65.026022 
L 252.43316 65.457827 
L 251.543042 66.032632 
L 250.751827 66.812003 
L 249.985336 67.895953 
L 249.218846 69.391844 
L 248.427631 71.456082 
L 247.586964 74.307532 
L 246.647396 78.344121 
L 245.559474 84.075663 
L 244.026494 93.506989 
L 241.850651 106.757711 
L 240.886357 111.301861 
L 240.144593 113.824052 
L 239.575906 115.070513 
L 239.130848 115.588832 
L 238.784691 115.699977 
L 238.463259 115.56775 
L 238.117103 115.167552 
L 237.696769 114.319225 
L 237.177534 112.724245 
L 236.559397 110.054611 
L 235.817632 105.806051 
L 234.902789 99.174007 
L 233.715966 88.802151 
L 229.191202 47.445045 
L 228.128006 40.598958 
L 227.188437 35.891221 
L 226.29832 32.517864 
L 225.457653 30.176592 
L 224.666438 28.591722 
L 223.875222 27.480806 
L 223.059281 26.71042 
L 222.169164 26.179958 
L 221.130693 25.828964 
L 219.746066 25.613695 
L 217.446596 25.514265 
L 208.76795 25.498185 
L 106.033551 25.608048 
L 104.747826 25.856112 
L 103.882434 26.24182 
L 103.165395 26.809702 
L 102.522532 27.616227 
L 101.904395 28.770168 
L 101.286258 30.426925 
L 100.66812 32.739635 
L 100.025258 36.02373 
L 99.332944 40.787817 
L 98.59118 47.563271 
L 97.799964 56.942799 
L 96.909846 70.30311 
L 95.871376 89.457768 
L 94.462023 119.999012 
L 91.717494 180.095455 
L 90.604847 199.257996 
L 89.665279 211.879873 
L 88.824612 220.425037 
L 88.033397 226.341512 
L 87.291632 230.316176 
L 86.574593 233.003691 
L 85.907005 234.713556 
L 85.313593 235.682788 
L 84.942711 235.937613 
L 84.720181 235.861161 
L 84.497652 235.502469 
L 84.250397 234.600784 
L 83.978417 232.6956 
L 83.656985 228.658925 
L 83.286103 220.791965 
L 82.816319 205.279768 
L 81.011358 138.285269 
L 80.591025 132.608173 
L 80.220143 130.18091 
L 79.873986 129.166748 
L 79.527829 128.756434 
L 79.08277 128.589901 
L 77.994849 128.52486 
L 76.165163 128.339665 
L 74.780536 127.970043 
L 72.703595 127.127703 
L 71.121163 126.613505 
L 69.687085 126.390992 
L 67.511242 126.311038 
L 67.090909 126.30837 
L 67.090909 126.30837 
" clip-path="url(#p65f66b56b6)" style="fill: none; stroke: #d62728; stroke-width: 2; stroke-linecap: square"/>
   </g>
   <g id="line2d_16">
    <path d="M 305.469329 31.450607 
L 299.312683 31.635044 
L 295.653311 31.958345 
L 292.834605 32.425061 
L 290.436233 33.043712 
L 288.26039 33.832666 
L 286.183449 34.824645 
L 284.155959 36.040989 
L 282.079019 37.548683 
L 279.828999 39.466034 
L 277.232823 41.985053 
L 273.326196 46.131749 
L 268.949785 50.69153 
L 266.378334 53.050542 
L 264.128315 54.822001 
L 261.952472 56.252918 
L 259.603551 57.523202 
L 255.400218 59.729502 
L 254.188669 60.680625 
L 253.150199 61.780176 
L 252.185905 63.131877 
L 251.246336 64.840695 
L 250.282042 67.076662 
L 249.268297 70.023424 
L 248.180376 73.905305 
L 246.944102 79.182069 
L 245.312219 87.221625 
L 242.369886 101.837985 
L 241.331416 105.834768 
L 240.515475 108.155272 
L 239.872612 109.366072 
L 239.378102 109.885481 
L 238.957769 110.027829 
L 238.586887 109.917156 
L 238.191279 109.550041 
L 237.721495 108.777196 
L 237.177534 107.427387 
L 236.509946 105.120637 
L 235.71873 101.51459 
L 234.754436 95.991546 
L 233.518162 87.501919 
L 231.342319 70.674095 
L 229.240653 55.112886 
L 227.880751 46.629999 
L 226.718653 40.691655 
L 225.655457 36.353571 
L 224.666438 33.202878 
L 223.726869 30.911317 
L 222.812026 29.23853 
L 221.897183 28.016561 
L 220.957615 27.130635 
L 219.968595 26.501752 
L 218.831223 26.049981 
L 217.446596 25.749993 
L 215.493282 25.573043 
L 211.784459 25.503471 
L 183.152345 25.498185 
L 106.058277 25.606719 
L 104.772551 25.852614 
L 103.907159 26.235707 
L 103.19012 26.800597 
L 102.547257 27.603931 
L 101.92912 28.754723 
L 101.310983 30.408959 
L 100.692846 32.720946 
L 100.049983 36.008076 
L 99.35767 40.782822 
L 98.615905 47.582998 
L 97.824689 57.010906 
L 96.934572 70.462307 
L 95.896101 89.784068 
L 94.486749 120.665747 
L 91.692769 182.632702 
L 90.580122 201.964006 
L 89.640553 214.675023 
L 88.799887 223.267628 
L 88.008671 229.208779 
L 87.266906 233.194865 
L 86.549867 235.886744 
L 85.882279 237.596528 
L 85.313593 238.529976 
L 84.942711 238.792608 
L 84.720181 238.720425 
L 84.497652 238.365846 
L 84.250397 237.468598 
L 83.978417 235.56792 
L 83.656985 231.534983 
L 83.286103 223.666947 
L 82.816319 208.136916 
L 81.011358 140.919734 
L 80.591025 135.209466 
L 80.220143 132.765494 
L 79.873986 131.742701 
L 79.527829 131.327072 
L 79.08277 131.154564 
L 77.82177 131.04264 
L 76.560771 130.800041 
L 75.571751 130.383614 
L 74.558006 129.700248 
L 72.95085 128.284196 
L 71.615673 127.245868 
L 70.601928 126.740087 
L 69.538732 126.462695 
L 68.079929 126.332513 
L 67.090909 126.311813 
L 67.090909 126.311813 
" clip-path="url(#p65f66b56b6)" style="fill: none; stroke: #9467bd; stroke-width: 2; stroke-linecap: square"/>
   </g>
   <g id="line2d_17">
    <path d="M 312.614995 31.424247 
L 301.760506 31.571074 
L 296.172546 31.861827 
L 291.796135 32.306487 
L 287.840057 32.930431 
L 283.883979 33.782562 
L 279.334489 35.000929 
L 266.798668 38.497144 
L 262.669511 39.314815 
L 256.438689 40.503538 
L 254.930434 41.067331 
L 253.718885 41.752706 
L 252.655689 42.606193 
L 251.641944 43.712087 
L 250.652925 45.134457 
L 249.663905 46.961341 
L 248.65016 49.313499 
L 247.562239 52.427826 
L 246.375415 56.54388 
L 245.015514 62.125187 
L 243.210553 70.581502 
L 240.589651 82.809236 
L 239.575906 86.50197 
L 238.809416 88.522447 
L 238.24073 89.472492 
L 237.795671 89.840406 
L 237.424789 89.872927 
L 237.078632 89.66608 
L 236.683024 89.138826 
L 236.21324 88.100546 
L 235.644554 86.243383 
L 234.976966 83.252225 
L 234.136299 78.363143 
L 233.023652 70.412643 
L 229.191202 41.753905 
L 228.177457 36.407083 
L 227.287339 32.822371 
L 226.446673 30.316296 
L 225.655457 28.623515 
L 224.888967 27.479234 
L 224.097752 26.688628 
L 223.257085 26.161153 
L 222.268065 25.81164 
L 220.957615 25.602627 
L 218.732321 25.509891 
L 209.03993 25.498183 
L 106.058277 25.607413 
L 104.772551 25.854879 
L 103.907159 26.240422 
L 103.19012 26.808925 
L 102.547257 27.617399 
L 101.92912 28.775553 
L 101.310983 30.440375 
L 100.692846 32.767159 
L 100.049983 36.075331 
L 99.35767 40.880647 
L 98.615905 47.724368 
L 97.824689 57.212661 
L 96.934572 70.750237 
L 95.896101 90.195811 
L 94.486749 121.275441 
L 91.692769 183.639818 
L 90.580122 203.095166 
L 89.640553 215.887769 
L 88.799887 224.535539 
L 88.008671 230.514841 
L 87.266906 234.526529 
L 86.549867 237.23573 
L 85.882279 238.95708 
L 85.288868 239.930175 
L 84.917985 240.183554 
L 84.695456 240.105022 
L 84.472926 239.744651 
L 84.225672 238.84521 
L 83.953691 236.9569 
L 83.63226 232.984431 
L 83.261378 225.306953 
L 82.791593 210.322964 
L 81.036084 148.082488 
L 80.61575 142.461078 
L 80.244868 140.027859 
L 79.898711 138.997296 
L 79.552555 138.570556 
L 79.107496 138.381932 
L 76.931653 137.796774 
L 76.214614 137.252445 
L 75.5223 136.439053 
L 74.75581 135.179416 
L 73.71734 132.993676 
L 71.862928 129.067199 
L 71.022262 127.837412 
L 70.280497 127.123656 
L 69.514007 126.688743 
L 68.599164 126.438675 
L 67.239262 126.325631 
L 67.090909 126.32149 
L 67.090909 126.32149 
" clip-path="url(#p65f66b56b6)" style="fill: none; stroke: #8c564b; stroke-width: 2; stroke-linecap: square"/>
   </g>
   <g id="line2d_18">
    <path d="M 322.9997 31.413399 
L 297.63135 31.53304 
L 284.180685 31.838845 
L 255.128238 32.805991 
L 253.496356 33.194908 
L 252.21063 33.725144 
L 251.073258 34.437464 
L 250.034787 35.352241 
L 249.021042 36.546179 
L 247.982572 38.129716 
L 246.919376 40.16923 
L 245.757278 42.898354 
L 244.397376 46.701324 
L 242.394612 53.071907 
L 240.317671 59.467336 
L 239.22975 62.134988 
L 238.389083 63.651422 
L 237.721495 64.441035 
L 237.152809 64.791651 
L 236.658299 64.841984 
L 236.188515 64.664838 
L 235.669279 64.213155 
L 235.075868 63.374275 
L 234.383554 61.982756 
L 233.542888 59.756057 
L 232.479692 56.256949 
L 230.872535 50.086124 
L 228.152731 39.65999 
L 226.817555 35.452541 
L 225.680183 32.557532 
L 224.616987 30.434374 
L 223.603242 28.893104 
L 222.614222 27.781418 
L 221.600477 26.969919 
L 220.512556 26.383543 
L 219.276282 25.972444 
L 217.718576 25.699304 
L 215.443831 25.547938 
L 210.498734 25.499498 
L 109.025335 25.502726 
L 105.860473 25.628979 
L 104.648924 25.892087 
L 103.808257 26.296154 
L 103.115944 26.874948 
L 102.473081 27.717861 
L 101.854944 28.921685 
L 101.236807 30.646991 
L 100.593944 33.16382 
L 99.926356 36.764989 
L 99.234042 41.801515 
L 98.492278 48.93096 
L 97.676337 59.096718 
L 96.761493 73.523101 
L 95.673572 94.544994 
L 94.115866 129.607879 
L 91.816396 180.852516 
L 90.679024 201.199776 
L 89.71473 214.664376 
L 88.849338 223.774438 
L 88.058122 229.888313 
L 87.316357 234.00375 
L 86.599318 236.791784 
L 85.93173 238.570202 
L 85.338318 239.591383 
L 84.967436 239.888061 
L 84.744907 239.848392 
L 84.522377 239.541793 
L 84.275123 238.723407 
L 84.003142 236.94895 
L 83.681711 233.122616 
L 83.310829 225.547426 
L 82.86577 211.300676 
L 82.074554 176.768161 
L 81.357515 149.76338 
L 80.887731 139.474641 
L 80.492123 134.923237 
L 80.121241 132.886874 
L 79.775084 132.063702 
L 79.404202 131.726281 
L 78.884966 131.593586 
L 76.51132 131.221927 
L 75.571751 130.784054 
L 74.607457 130.079302 
L 73.173379 128.7037 
L 71.739301 127.430804 
L 70.750281 126.84937 
L 69.736536 126.51919 
L 68.450811 126.354375 
L 67.090909 126.312532 
L 67.090909 126.312532 
" clip-path="url(#p65f66b56b6)" style="fill: none; stroke: #e377c2; stroke-width: 2; stroke-linecap: square"/>
   </g>
   <g id="line2d_19">
    <path d="M 328.909091 31.464712 
L 321.466719 31.665027 
L 316.867779 32.002701 
L 313.307309 32.48193 
L 310.290799 33.109303 
L 307.595721 33.894814 
L 305.098447 34.851711 
L 302.700075 36.006941 
L 300.326428 37.397235 
L 297.90333 39.078198 
L 295.356605 41.123342 
L 292.587351 43.640264 
L 289.274135 46.967912 
L 283.16694 53.502332 
L 278.988333 57.790266 
L 275.971823 60.575842 
L 273.301471 62.74548 
L 270.804196 64.491929 
L 268.381099 65.918057 
L 265.958001 67.087896 
L 263.460727 68.046154 
L 260.8151 68.821553 
L 257.650237 69.504864 
L 254.73263 70.178685 
L 253.521081 70.69544 
L 252.581513 71.336797 
L 251.740846 72.186444 
L 250.94963 73.30841 
L 250.133689 74.875565 
L 249.293023 77.001556 
L 248.37818 79.961726 
L 247.339709 84.136171 
L 246.053984 90.306673 
L 242.073181 110.159759 
L 241.084161 113.660099 
L 240.292946 115.724713 
L 239.650083 116.845008 
L 239.155573 117.321852 
L 238.759965 117.434305 
L 238.413808 117.316913 
L 238.042926 116.946964 
L 237.622593 116.19367 
L 237.128083 114.807412 
L 236.559397 112.477405 
L 235.916534 108.81456 
L 235.17477 103.17333 
L 234.309378 94.760505 
L 233.14728 81.074459 
L 230.501653 49.218974 
L 229.537359 40.617146 
L 228.721418 35.185177 
L 227.979653 31.62837 
L 227.287339 29.315398 
L 226.619751 27.812658 
L 225.952163 26.841774 
L 225.259849 26.227771 
L 224.493359 25.848992 
L 223.50434 25.622981 
L 221.897183 25.516852 
L 216.358674 25.498154 
L 105.909924 25.608671 
L 104.624198 25.854752 
L 103.758806 26.234342 
L 103.041767 26.789815 
L 102.398905 27.574541 
L 101.780767 28.69175 
L 101.16263 30.287984 
L 100.519768 32.609191 
L 99.852179 35.919588 
L 99.159866 40.533728 
L 98.418101 47.041863 
L 97.60216 56.285579 
L 96.687317 69.346783 
L 95.599396 88.284225 
L 93.992239 120.6945 
L 91.841122 163.349317 
L 90.703749 181.586866 
L 89.739455 193.684462 
L 88.874063 201.886782 
L 88.082848 207.401917 
L 87.341083 211.120846 
L 86.624044 213.644544 
L 85.93173 215.306535 
L 85.313593 216.253925 
L 84.917985 216.522787 
L 84.67073 216.452736 
L 84.448201 216.12831 
L 84.200946 215.32441 
L 83.90424 213.438311 
L 83.582809 209.766192 
L 83.211927 202.772399 
L 82.717417 188.515979 
L 81.11026 137.679335 
L 80.665201 131.833167 
L 80.269594 129.321138 
L 79.923437 128.33807 
L 79.57728 127.930898 
L 79.132221 127.76249 
L 78.118476 127.707498 
L 75.794281 127.541861 
L 74.038771 127.180611 
L 70.799732 126.458191 
L 68.846419 126.326966 
L 67.090909 126.30731 
L 67.090909 126.30731 
" clip-path="url(#p65f66b56b6)" style="fill: none; stroke: #7f7f7f; stroke-width: 2; stroke-linecap: square"/>
   </g>
   <g id="patch_3">
    <path d="M 54 250.92 
L 54 14.76 
" style="fill: none; stroke: #000000; stroke-width: 0.8; stroke-linejoin: miter; stroke-linecap: square"/>
   </g>
   <g id="patch_4">
    <path d="M 342 250.92 
L 342 14.76 
" style="fill: none; stroke: #000000; stroke-width: 0.8; stroke-linejoin: miter; stroke-linecap: square"/>
   </g>
   <g id="patch_5">
    <path d="M 54 250.92 
L 342 250.92 
" style="fill: none; stroke: #000000; stroke-width: 0.8; stroke-linejoin: miter; stroke-linecap: square"/>
   </g>
   <g id="patch_6">
    <path d="M 54 14.76 
L 342 14.76 
" style="fill: none; stroke: #000000; stroke-width: 0.8; stroke-linejoin: miter; stroke-linecap: square"/>
   </g>
   <g id="legend_1">
    <g id="line2d_20">
     <path d="M 271.827187 180.524062 
L 277.827187 180.524062 
L 283.827187 180.524062 
" style="fill: none; stroke: #7f7f7f; stroke-width: 2; stroke-linecap: square"/>
    </g>
    <g id="text_14">
     <!-- Final state -->
     <g transform="translate(288.627187 182.624062)scale(0.06 -0.06)">
      <defs>
       <path id="DejaVuSans-46" d="M 628 4666 
L 3309 4666 
L 3309 4134 
L 1259 4134 
L 1259 2759 
L 3109 2759 
L 3109 2228 
L 1259 2228 
L 1259 0 
L 628 0 
L 628 4666 
z
" transform="scale(0.015625)"/>
       <path id="DejaVuSans-69" d="M 603 3500 
L 1178 3500 
L 1178 0 
L 603 0 
L 603 3500 
z
M 603 4863 
L 1178 4863 
L 1178 4134 
L 603 4134 
L 603 4863 
z
" transform="scale(0.015625)"/>
       <path id="DejaVuSans-6e" d="M 3513 2113 
L 3513 0 
L 2938 0 
L 2938 2094 
Q 2938 2591 2744 2837 
Q 2550 3084 2163 3084 
Q 1697 3084 1428 2787 
Q 1159 2491 1159 1978 
L 1159 0 
L 581 0 
L 581 3500 
L 1159 3500 
L 1159 2956 
Q 1366 3272 1645 3428 
Q 1925 3584 2291 3584 
Q 2894 3584 3203 3211 
Q 3513 2838 3513 2113 
z
" transform="scale(0.015625)"/>
       <path id="DejaVuSans-61" d="M 2194 1759 
Q 1497 1759 1228 1600 
Q 959 1441 959 1056 
Q 959 750 1161 570 
Q 1363 391 1709 391 
Q 2188 391 2477 730 
Q 2766 1069 2766 1631 
L 2766 1759 
L 2194 1759 
z
M 3341 1997 
L 3341 0 
L 2766 0 
L 2766 531 
Q 2569 213 2275 61 
Q 1981 -91 1556 -91 
Q 1019 -91 701 211 
Q 384 513 384 1019 
Q 384 1609 779 1909 
Q 1175 2209 1959 2209 
L 2766 2209 
L 2766 2266 
Q 2766 2663 2505 2880 
Q 2244 3097 1772 3097 
Q 1472 3097 1187 3025 
Q 903 2953 641 2809 
L 641 3341 
Q 956 3463 1253 3523 
Q 1550 3584 1831 3584 
Q 2591 3584 2966 3190 
Q 3341 2797 3341 1997 
z
" transform="scale(0.015625)"/>
       <path id="DejaVuSans-6c" d="M 603 4863 
L 1178 4863 
L 1178 0 
L 603 0 
L 603 4863 
z
" transform="scale(0.015625)"/>
       <path id="DejaVuSans-73" d="M 2834 3397 
L 2834 2853 
Q 2591 2978 2328 3040 
Q 2066 3103 1784 3103 
Q 1356 3103 1142 2972 
Q 928 2841 928 2578 
Q 928 2378 1081 2264 
Q 1234 2150 1697 2047 
L 1894 2003 
Q 2506 1872 2764 1633 
Q 3022 1394 3022 966 
Q 3022 478 2636 193 
Q 2250 -91 1575 -91 
Q 1294 -91 989 -36 
Q 684 19 347 128 
L 347 722 
Q 666 556 975 473 
Q 1284 391 1588 391 
Q 1994 391 2212 530 
Q 2431 669 2431 922 
Q 2431 1156 2273 1281 
Q 2116 1406 1581 1522 
L 1381 1569 
Q 847 1681 609 1914 
Q 372 2147 372 2553 
Q 372 3047 722 3315 
Q 1072 3584 1716 3584 
Q 2034 3584 2315 3537 
Q 2597 3491 2834 3397 
z
" transform="scale(0.015625)"/>
       <path id="DejaVuSans-74" d="M 1172 4494 
L 1172 3500 
L 2356 3500 
L 2356 3053 
L 1172 3053 
L 1172 1153 
Q 1172 725 1289 603 
Q 1406 481 1766 481 
L 2356 481 
L 2356 0 
L 1766 0 
Q 1100 0 847 248 
Q 594 497 594 1153 
L 594 3053 
L 172 3053 
L 172 3500 
L 594 3500 
L 594 4494 
L 1172 4494 
z
" transform="scale(0.015625)"/>
       <path id="DejaVuSans-65" d="M 3597 1894 
L 3597 1613 
L 953 1613 
Q 991 1019 1311 708 
Q 1631 397 2203 397 
Q 2534 397 2845 478 
Q 3156 559 3463 722 
L 3463 178 
Q 3153 47 2828 -22 
Q 2503 -91 2169 -91 
Q 1331 -91 842 396 
Q 353 884 353 1716 
Q 353 2575 817 3079 
Q 1281 3584 2069 3584 
Q 2775 3584 3186 3129 
Q 3597 2675 3597 1894 
z
M 3022 2063 
Q 3016 2534 2758 2815 
Q 2500 3097 2075 3097 
Q 1594 3097 1305 2825 
Q 1016 2553 972 2059 
L 3022 2063 
z
" transform="scale(0.015625)"/>
      </defs>
      <use xlink:href="#DejaVuSans-46"/>
      <use xlink:href="#DejaVuSans-69" x="50.269531"/>
      <use xlink:href="#DejaVuSans-6e" x="78.052734"/>
      <use xlink:href="#DejaVuSans-61" x="141.431641"/>
      <use xlink:href="#DejaVuSans-6c" x="202.710938"/>
      <use xlink:href="#DejaVuSans-20" x="230.494141"/>
      <use xlink:href="#DejaVuSans-73" x="262.28125"/>
      <use xlink:href="#DejaVuSans-74" x="314.380859"/>
      <use xlink:href="#DejaVuSans-61" x="353.589844"/>
      <use xlink:href="#DejaVuSans-74" x="414.869141"/>
      <use xlink:href="#DejaVuSans-65" x="454.078125"/>
     </g>
    </g>
    <g id="line2d_21">
     <path d="M 271.827187 189.330937 
L 277.827187 189.330937 
L 283.827187 189.330937 
" style="fill: none; stroke: #e377c2; stroke-width: 2; stroke-linecap: square"/>
    </g>
    <g id="text_15">
     <!-- 90 &lt; t &lt; 120 s -->
     <g transform="translate(288.627187 191.430937)scale(0.06 -0.06)">
      <defs>
       <path id="DejaVuSans-39" d="M 703 97 
L 703 672 
Q 941 559 1184 500 
Q 1428 441 1663 441 
Q 2288 441 2617 861 
Q 2947 1281 2994 2138 
Q 2813 1869 2534 1725 
Q 2256 1581 1919 1581 
Q 1219 1581 811 2004 
Q 403 2428 403 3163 
Q 403 3881 828 4315 
Q 1253 4750 1959 4750 
Q 2769 4750 3195 4129 
Q 3622 3509 3622 2328 
Q 3622 1225 3098 567 
Q 2575 -91 1691 -91 
Q 1453 -91 1209 -44 
Q 966 3 703 97 
z
M 1959 2075 
Q 2384 2075 2632 2365 
Q 2881 2656 2881 3163 
Q 2881 3666 2632 3958 
Q 2384 4250 1959 4250 
Q 1534 4250 1286 3958 
Q 1038 3666 1038 3163 
Q 1038 2656 1286 2365 
Q 1534 2075 1959 2075 
z
" transform="scale(0.015625)"/>
       <path id="DejaVuSans-3c" d="M 4684 3150 
L 1459 2003 
L 4684 863 
L 4684 294 
L 678 1747 
L 678 2266 
L 4684 3719 
L 4684 3150 
z
" transform="scale(0.015625)"/>
      </defs>
      <use xlink:href="#DejaVuSans-39"/>
      <use xlink:href="#DejaVuSans-30" x="63.623047"/>
      <use xlink:href="#DejaVuSans-20" x="127.246094"/>
      <use xlink:href="#DejaVuSans-3c" x="159.033203"/>
      <use xlink:href="#DejaVuSans-20" x="242.822266"/>
      <use xlink:href="#DejaVuSans-74" x="274.609375"/>
      <use xlink:href="#DejaVuSans-20" x="313.818359"/>
      <use xlink:href="#DejaVuSans-3c" x="345.605469"/>
      <use xlink:href="#DejaVuSans-20" x="429.394531"/>
      <use xlink:href="#DejaVuSans-31" x="461.181641"/>
      <use xlink:href="#DejaVuSans-32" x="524.804688"/>
      <use xlink:href="#DejaVuSans-30" x="588.427734"/>
      <use xlink:href="#DejaVuSans-20" x="652.050781"/>
      <use xlink:href="#DejaVuSans-73" x="683.837891"/>
     </g>
    </g>
    <g id="line2d_22">
     <path d="M 271.827187 198.137812 
L 277.827187 198.137812 
L 283.827187 198.137812 
" style="fill: none; stroke: #8c564b; stroke-width: 2; stroke-linecap: square"/>
    </g>
    <g id="text_16">
     <!-- 120 &lt; t &lt; 150 s -->
     <g transform="translate(288.627187 200.237812)scale(0.06 -0.06)">
      <defs>
       <path id="DejaVuSans-35" d="M 691 4666 
L 3169 4666 
L 3169 4134 
L 1269 4134 
L 1269 2991 
Q 1406 3038 1543 3061 
Q 1681 3084 1819 3084 
Q 2600 3084 3056 2656 
Q 3513 2228 3513 1497 
Q 3513 744 3044 326 
Q 2575 -91 1722 -91 
Q 1428 -91 1123 -41 
Q 819 9 494 109 
L 494 744 
Q 775 591 1075 516 
Q 1375 441 1709 441 
Q 2250 441 2565 725 
Q 2881 1009 2881 1497 
Q 2881 1984 2565 2268 
Q 2250 2553 1709 2553 
Q 1456 2553 1204 2497 
Q 953 2441 691 2322 
L 691 4666 
z
" transform="scale(0.015625)"/>
      </defs>
      <use xlink:href="#DejaVuSans-31"/>
      <use xlink:href="#DejaVuSans-32" x="63.623047"/>
      <use xlink:href="#DejaVuSans-30" x="127.246094"/>
      <use xlink:href="#DejaVuSans-20" x="190.869141"/>
      <use xlink:href="#DejaVuSans-3c" x="222.65625"/>
      <use xlink:href="#DejaVuSans-20" x="306.445312"/>
      <use xlink:href="#DejaVuSans-74" x="338.232422"/>
      <use xlink:href="#DejaVuSans-20" x="377.441406"/>
      <use xlink:href="#DejaVuSans-3c" x="409.228516"/>
      <use xlink:href="#DejaVuSans-20" x="493.017578"/>
      <use xlink:href="#DejaVuSans-31" x="524.804688"/>
      <use xlink:href="#DejaVuSans-35" x="588.427734"/>
      <use xlink:href="#DejaVuSans-30" x="652.050781"/>
      <use xlink:href="#DejaVuSans-20" x="715.673828"/>
      <use xlink:href="#DejaVuSans-73" x="747.460938"/>
     </g>
    </g>
    <g id="line2d_23">
     <path d="M 271.827187 206.944687 
L 277.827187 206.944687 
L 283.827187 206.944687 
" style="fill: none; stroke: #9467bd; stroke-width: 2; stroke-linecap: square"/>
    </g>
    <g id="text_17">
     <!-- 150 &lt; t &lt; 180 s -->
     <g transform="translate(288.627187 209.044687)scale(0.06 -0.06)">
      <use xlink:href="#DejaVuSans-31"/>
      <use xlink:href="#DejaVuSans-35" x="63.623047"/>
      <use xlink:href="#DejaVuSans-30" x="127.246094"/>
      <use xlink:href="#DejaVuSans-20" x="190.869141"/>
      <use xlink:href="#DejaVuSans-3c" x="222.65625"/>
      <use xlink:href="#DejaVuSans-20" x="306.445312"/>
      <use xlink:href="#DejaVuSans-74" x="338.232422"/>
      <use xlink:href="#DejaVuSans-20" x="377.441406"/>
      <use xlink:href="#DejaVuSans-3c" x="409.228516"/>
      <use xlink:href="#DejaVuSans-20" x="493.017578"/>
      <use xlink:href="#DejaVuSans-31" x="524.804688"/>
      <use xlink:href="#DejaVuSans-38" x="588.427734"/>
      <use xlink:href="#DejaVuSans-30" x="652.050781"/>
      <use xlink:href="#DejaVuSans-20" x="715.673828"/>
      <use xlink:href="#DejaVuSans-73" x="747.460938"/>
     </g>
    </g>
    <g id="line2d_24">
     <path d="M 271.827187 215.751563 
L 277.827187 215.751563 
L 283.827187 215.751563 
" style="fill: none; stroke: #d62728; stroke-width: 2; stroke-linecap: square"/>
    </g>
    <g id="text_18">
     <!-- 180 &lt; t &lt; 210 s -->
     <g transform="translate(288.627187 217.851562)scale(0.06 -0.06)">
      <use xlink:href="#DejaVuSans-31"/>
      <use xlink:href="#DejaVuSans-38" x="63.623047"/>
      <use xlink:href="#DejaVuSans-30" x="127.246094"/>
      <use xlink:href="#DejaVuSans-20" x="190.869141"/>
      <use xlink:href="#DejaVuSans-3c" x="222.65625"/>
      <use xlink:href="#DejaVuSans-20" x="306.445312"/>
      <use xlink:href="#DejaVuSans-74" x="338.232422"/>
      <use xlink:href="#DejaVuSans-20" x="377.441406"/>
      <use xlink:href="#DejaVuSans-3c" x="409.228516"/>
      <use xlink:href="#DejaVuSans-20" x="493.017578"/>
      <use xlink:href="#DejaVuSans-32" x="524.804688"/>
      <use xlink:href="#DejaVuSans-31" x="588.427734"/>
      <use xlink:href="#DejaVuSans-30" x="652.050781"/>
      <use xlink:href="#DejaVuSans-20" x="715.673828"/>
      <use xlink:href="#DejaVuSans-73" x="747.460938"/>
     </g>
    </g>
    <g id="line2d_25">
     <path d="M 271.827187 224.558437 
L 277.827187 224.558437 
L 283.827187 224.558437 
" style="fill: none; stroke: #2ca02c; stroke-width: 2; stroke-linecap: square"/>
    </g>
    <g id="text_19">
     <!-- 210 &lt; t &lt; 240 s -->
     <g transform="translate(288.627187 226.658437)scale(0.06 -0.06)">
      <use xlink:href="#DejaVuSans-32"/>
      <use xlink:href="#DejaVuSans-31" x="63.623047"/>
      <use xlink:href="#DejaVuSans-30" x="127.246094"/>
      <use xlink:href="#DejaVuSans-20" x="190.869141"/>
      <use xlink:href="#DejaVuSans-3c" x="222.65625"/>
      <use xlink:href="#DejaVuSans-20" x="306.445312"/>
      <use xlink:href="#DejaVuSans-74" x="338.232422"/>
      <use xlink:href="#DejaVuSans-20" x="377.441406"/>
      <use xlink:href="#DejaVuSans-3c" x="409.228516"/>
      <use xlink:href="#DejaVuSans-20" x="493.017578"/>
      <use xlink:href="#DejaVuSans-32" x="524.804688"/>
      <use xlink:href="#DejaVuSans-34" x="588.427734"/>
      <use xlink:href="#DejaVuSans-30" x="652.050781"/>
      <use xlink:href="#DejaVuSans-20" x="715.673828"/>
      <use xlink:href="#DejaVuSans-73" x="747.460938"/>
     </g>
    </g>
    <g id="line2d_26">
     <path d="M 271.827187 233.365312 
L 277.827187 233.365312 
L 283.827187 233.365312 
" style="fill: none; stroke: #ff7f0e; stroke-width: 2; stroke-linecap: square"/>
    </g>
    <g id="text_20">
     <!-- 240 &lt; t &lt; 270 s -->
     <g transform="translate(288.627187 235.465312)scale(0.06 -0.06)">
      <defs>
       <path id="DejaVuSans-37" d="M 525 4666 
L 3525 4666 
L 3525 4397 
L 1831 0 
L 1172 0 
L 2766 4134 
L 525 4134 
L 525 4666 
z
" transform="scale(0.015625)"/>
      </defs>
      <use xlink:href="#DejaVuSans-32"/>
      <use xlink:href="#DejaVuSans-34" x="63.623047"/>
      <use xlink:href="#DejaVuSans-30" x="127.246094"/>
      <use xlink:href="#DejaVuSans-20" x="190.869141"/>
      <use xlink:href="#DejaVuSans-3c" x="222.65625"/>
      <use xlink:href="#DejaVuSans-20" x="306.445312"/>
      <use xlink:href="#DejaVuSans-74" x="338.232422"/>
      <use xlink:href="#DejaVuSans-20" x="377.441406"/>
      <use xlink:href="#DejaVuSans-3c" x="409.228516"/>
      <use xlink:href="#DejaVuSans-20" x="493.017578"/>
      <use xlink:href="#DejaVuSans-32" x="524.804688"/>
      <use xlink:href="#DejaVuSans-37" x="588.427734"/>
      <use xlink:href="#DejaVuSans-30" x="652.050781"/>
      <use xlink:href="#DejaVuSans-20" x="715.673828"/>
      <use xlink:href="#DejaVuSans-73" x="747.460938"/>
     </g>
    </g>
    <g id="line2d_27">
     <path d="M 271.827187 242.172187 
L 277.827187 242.172187 
L 283.827187 242.172187 
" style="fill: none; stroke: #1f77b4; stroke-width: 2; stroke-linecap: square"/>
    </g>
    <g id="text_21">
     <!-- Initial state -->
     <g transform="translate(288.627187 244.272187)scale(0.06 -0.06)">
      <defs>
       <path id="DejaVuSans-49" d="M 628 4666 
L 1259 4666 
L 1259 0 
L 628 0 
L 628 4666 
z
" transform="scale(0.015625)"/>
      </defs>
      <use xlink:href="#DejaVuSans-49"/>
      <use xlink:href="#DejaVuSans-6e" x="29.492188"/>
      <use xlink:href="#DejaVuSans-69" x="92.871094"/>
      <use xlink:href="#DejaVuSans-74" x="120.654297"/>
      <use xlink:href="#DejaVuSans-69" x="159.863281"/>
      <use xlink:href="#DejaVuSans-61" x="187.646484"/>
      <use xlink:href="#DejaVuSans-6c" x="248.925781"/>
      <use xlink:href="#DejaVuSans-20" x="276.708984"/>
      <use xlink:href="#DejaVuSans-73" x="308.496094"/>
      <use xlink:href="#DejaVuSans-74" x="360.595703"/>
      <use xlink:href="#DejaVuSans-61" x="399.804688"/>
      <use xlink:href="#DejaVuSans-74" x="461.083984"/>
      <use xlink:href="#DejaVuSans-65" x="500.292969"/>
     </g>
    </g>
   </g>
  </g>
 </g>
 <defs>
  <clipPath id="p65f66b56b6">
   <rect x="54" y="14.76" width="288" height="236.16"/>
  </clipPath>
 </defs>
</svg>
