<?xml version="1.0" encoding="utf-8" standalone="no"?>
<!DOCTYPE svg PUBLIC "-//W3C//DTD SVG 1.1//EN"
  "http://www.w3.org/Graphics/SVG/1.1/DTD/svg11.dtd">
<svg xmlns:xlink="http://www.w3.org/1999/xlink" width="360pt" height="295.2pt" viewBox="0 0 360 295.2" xmlns="http://www.w3.org/2000/svg" version="1.1">
 <metadata>
  <rdf:RDF xmlns:dc="http://purl.org/dc/elements/1.1/" xmlns:cc="http://creativecommons.org/ns#" xmlns:rdf="http://www.w3.org/1999/02/22-rdf-syntax-ns#">
   <cc:Work>
    <dc:type rdf:resource="http://purl.org/dc/dcmitype/StillImage"/>
    <dc:date>2024-07-07T10:49:24.958358</dc:date>
    <dc:format>image/svg+xml</dc:format>
    <dc:creator>
     <cc:Agent>
      <dc:title>Matplotlib v3.5.3, https://matplotlib.org/</dc:title>
     </cc:Agent>
    </dc:creator>
   </cc:Work>
  </rdf:RDF>
 </metadata>
 <defs>
  <style type="text/css">*{stroke-linejoin: round; stroke-linecap: butt}</style>
 </defs>
 <g id="figure_1">
  <g id="patch_1">
   <path d="M 0 295.2 
L 360 295.2 
L 360 0 
L 0 0 
z
" style="fill: #ffffff"/>
  </g>
  <g id="axes_1">
   <g id="patch_2">
    <path d="M 54 250.92 
L 342 250.92 
L 342 14.76 
L 54 14.76 
z
" style="fill: #ffffff"/>
   </g>
   <g id="matplotlib.axis_1">
    <g id="xtick_1">
     <g id="line2d_1">
      <defs>
       <path id="m10e68fa52b" d="M 0 0 
L 0 3.5 
" style="stroke: #000000; stroke-width: 0.8"/>
      </defs>
      <g>
       <use xlink:href="#m10e68fa52b" x="67.090909" y="250.92" style="stroke: #000000; stroke-width: 0.8"/>
      </g>
     </g>
     <g id="text_1">
      <!-- 0 -->
      <g transform="translate(63.909659 265.518438)scale(0.1 -0.1)">
       <defs>
        <path id="DejaVuSans-30" d="M 2034 4250 
Q 1547 4250 1301 3770 
Q 1056 3291 1056 2328 
Q 1056 1369 1301 889 
Q 1547 409 2034 409 
Q 2525 409 2770 889 
Q 3016 1369 3016 2328 
Q 3016 3291 2770 3770 
Q 2525 4250 2034 4250 
z
M 2034 4750 
Q 2819 4750 3233 4129 
Q 3647 3509 3647 2328 
Q 3647 1150 3233 529 
Q 2819 -91 2034 -91 
Q 1250 -91 836 529 
Q 422 1150 422 2328 
Q 422 3509 836 4129 
Q 1250 4750 2034 4750 
z
" transform="scale(0.015625)"/>
       </defs>
       <use xlink:href="#DejaVuSans-30"/>
      </g>
     </g>
    </g>
    <g id="xtick_2">
     <g id="line2d_2">
      <g>
       <use xlink:href="#m10e68fa52b" x="115.8194" y="250.92" style="stroke: #000000; stroke-width: 0.8"/>
      </g>
     </g>
     <g id="text_2">
      <!-- 200 -->
      <g transform="translate(106.27565 265.518438)scale(0.1 -0.1)">
       <defs>
        <path id="DejaVuSans-32" d="M 1228 531 
L 3431 531 
L 3431 0 
L 469 0 
L 469 531 
Q 828 903 1448 1529 
Q 2069 2156 2228 2338 
Q 2531 2678 2651 2914 
Q 2772 3150 2772 3378 
Q 2772 3750 2511 3984 
Q 2250 4219 1831 4219 
Q 1534 4219 1204 4116 
Q 875 4013 500 3803 
L 500 4441 
Q 881 4594 1212 4672 
Q 1544 4750 1819 4750 
Q 2544 4750 2975 4387 
Q 3406 4025 3406 3419 
Q 3406 3131 3298 2873 
Q 3191 2616 2906 2266 
Q 2828 2175 2409 1742 
Q 1991 1309 1228 531 
z
" transform="scale(0.015625)"/>
       </defs>
       <use xlink:href="#DejaVuSans-32"/>
       <use xlink:href="#DejaVuSans-30" x="63.623047"/>
       <use xlink:href="#DejaVuSans-30" x="127.246094"/>
      </g>
     </g>
    </g>
    <g id="xtick_3">
     <g id="line2d_3">
      <g>
       <use xlink:href="#m10e68fa52b" x="164.547891" y="250.92" style="stroke: #000000; stroke-width: 0.8"/>
      </g>
     </g>
     <g id="text_3">
      <!-- 400 -->
      <g transform="translate(155.004141 265.518438)scale(0.1 -0.1)">
       <defs>
        <path id="DejaVuSans-34" d="M 2419 4116 
L 825 1625 
L 2419 1625 
L 2419 4116 
z
M 2253 4666 
L 3047 4666 
L 3047 1625 
L 3713 1625 
L 3713 1100 
L 3047 1100 
L 3047 0 
L 2419 0 
L 2419 1100 
L 313 1100 
L 313 1709 
L 2253 4666 
z
" transform="scale(0.015625)"/>
       </defs>
       <use xlink:href="#DejaVuSans-34"/>
       <use xlink:href="#DejaVuSans-30" x="63.623047"/>
       <use xlink:href="#DejaVuSans-30" x="127.246094"/>
      </g>
     </g>
    </g>
    <g id="xtick_4">
     <g id="line2d_4">
      <g>
       <use xlink:href="#m10e68fa52b" x="213.276382" y="250.92" style="stroke: #000000; stroke-width: 0.8"/>
      </g>
     </g>
     <g id="text_4">
      <!-- 600 -->
      <g transform="translate(203.732632 265.518438)scale(0.1 -0.1)">
       <defs>
        <path id="DejaVuSans-36" d="M 2113 2584 
Q 1688 2584 1439 2293 
Q 1191 2003 1191 1497 
Q 1191 994 1439 701 
Q 1688 409 2113 409 
Q 2538 409 2786 701 
Q 3034 994 3034 1497 
Q 3034 2003 2786 2293 
Q 2538 2584 2113 2584 
z
M 3366 4563 
L 3366 3988 
Q 3128 4100 2886 4159 
Q 2644 4219 2406 4219 
Q 1781 4219 1451 3797 
Q 1122 3375 1075 2522 
Q 1259 2794 1537 2939 
Q 1816 3084 2150 3084 
Q 2853 3084 3261 2657 
Q 3669 2231 3669 1497 
Q 3669 778 3244 343 
Q 2819 -91 2113 -91 
Q 1303 -91 875 529 
Q 447 1150 447 2328 
Q 447 3434 972 4092 
Q 1497 4750 2381 4750 
Q 2619 4750 2861 4703 
Q 3103 4656 3366 4563 
z
" transform="scale(0.015625)"/>
       </defs>
       <use xlink:href="#DejaVuSans-36"/>
       <use xlink:href="#DejaVuSans-30" x="63.623047"/>
       <use xlink:href="#DejaVuSans-30" x="127.246094"/>
      </g>
     </g>
    </g>
    <g id="xtick_5">
     <g id="line2d_5">
      <g>
       <use xlink:href="#m10e68fa52b" x="262.004873" y="250.92" style="stroke: #000000; stroke-width: 0.8"/>
      </g>
     </g>
     <g id="text_5">
      <!-- 800 -->
      <g transform="translate(252.461123 265.518438)scale(0.1 -0.1)">
       <defs>
        <path id="DejaVuSans-38" d="M 2034 2216 
Q 1584 2216 1326 1975 
Q 1069 1734 1069 1313 
Q 1069 891 1326 650 
Q 1584 409 2034 409 
Q 2484 409 2743 651 
Q 3003 894 3003 1313 
Q 3003 1734 2745 1975 
Q 2488 2216 2034 2216 
z
M 1403 2484 
Q 997 2584 770 2862 
Q 544 3141 544 3541 
Q 544 4100 942 4425 
Q 1341 4750 2034 4750 
Q 2731 4750 3128 4425 
Q 3525 4100 3525 3541 
Q 3525 3141 3298 2862 
Q 3072 2584 2669 2484 
Q 3125 2378 3379 2068 
Q 3634 1759 3634 1313 
Q 3634 634 3220 271 
Q 2806 -91 2034 -91 
Q 1263 -91 848 271 
Q 434 634 434 1313 
Q 434 1759 690 2068 
Q 947 2378 1403 2484 
z
M 1172 3481 
Q 1172 3119 1398 2916 
Q 1625 2713 2034 2713 
Q 2441 2713 2670 2916 
Q 2900 3119 2900 3481 
Q 2900 3844 2670 4047 
Q 2441 4250 2034 4250 
Q 1625 4250 1398 4047 
Q 1172 3844 1172 3481 
z
" transform="scale(0.015625)"/>
       </defs>
       <use xlink:href="#DejaVuSans-38"/>
       <use xlink:href="#DejaVuSans-30" x="63.623047"/>
       <use xlink:href="#DejaVuSans-30" x="127.246094"/>
      </g>
     </g>
    </g>
    <g id="xtick_6">
     <g id="line2d_6">
      <g>
       <use xlink:href="#m10e68fa52b" x="310.733364" y="250.92" style="stroke: #000000; stroke-width: 0.8"/>
      </g>
     </g>
     <g id="text_6">
      <!-- 1000 -->
      <g transform="translate(298.008364 265.518438)scale(0.1 -0.1)">
       <defs>
        <path id="DejaVuSans-31" d="M 794 531 
L 1825 531 
L 1825 4091 
L 703 3866 
L 703 4441 
L 1819 4666 
L 2450 4666 
L 2450 531 
L 3481 531 
L 3481 0 
L 794 0 
L 794 531 
z
" transform="scale(0.015625)"/>
       </defs>
       <use xlink:href="#DejaVuSans-31"/>
       <use xlink:href="#DejaVuSans-30" x="63.623047"/>
       <use xlink:href="#DejaVuSans-30" x="127.246094"/>
       <use xlink:href="#DejaVuSans-30" x="190.869141"/>
      </g>
     </g>
    </g>
    <g id="text_7">
     <!-- z ($\AA$) -->
     <g transform="translate(181.83 283.666562)scale(0.14 -0.14)">
      <defs>
       <path id="DejaVuSans-7a" d="M 353 3500 
L 3084 3500 
L 3084 2975 
L 922 459 
L 3084 459 
L 3084 0 
L 275 0 
L 275 525 
L 2438 3041 
L 353 3041 
L 353 3500 
z
" transform="scale(0.015625)"/>
       <path id="DejaVuSans-20" transform="scale(0.015625)"/>
       <path id="DejaVuSans-28" d="M 1984 4856 
Q 1566 4138 1362 3434 
Q 1159 2731 1159 2009 
Q 1159 1288 1364 580 
Q 1569 -128 1984 -844 
L 1484 -844 
Q 1016 -109 783 600 
Q 550 1309 550 2009 
Q 550 2706 781 3412 
Q 1013 4119 1484 4856 
L 1984 4856 
z
" transform="scale(0.015625)"/>
       <path id="DejaVuSans-Oblique-c5" d="M 3188 5081 
Q 3188 5278 3048 5417 
Q 2909 5556 2713 5556 
Q 2513 5556 2377 5420 
Q 2241 5284 2241 5081 
Q 2241 4884 2377 4746 
Q 2513 4609 2713 4609 
Q 2909 4609 3048 4746 
Q 3188 4884 3188 5081 
z
M 2203 4397 
Q 2034 4513 1945 4689 
Q 1856 4866 1856 5081 
Q 1856 5438 2106 5689 
Q 2356 5941 2713 5941 
Q 3069 5941 3320 5689 
Q 3572 5438 3572 5081 
Q 3572 4834 3458 4643 
Q 3344 4453 3128 4341 
L 3938 0 
L 3278 0 
L 3084 1197 
L 984 1197 
L 325 0 
L -341 0 
L 2203 4397 
z
M 2584 4044 
L 1275 1722 
L 2988 1722 
L 2584 4044 
z
" transform="scale(0.015625)"/>
       <path id="DejaVuSans-29" d="M 513 4856 
L 1013 4856 
Q 1481 4119 1714 3412 
Q 1947 2706 1947 2009 
Q 1947 1309 1714 600 
Q 1481 -109 1013 -844 
L 513 -844 
Q 928 -128 1133 580 
Q 1338 1288 1338 2009 
Q 1338 2731 1133 3434 
Q 928 4138 513 4856 
z
" transform="scale(0.015625)"/>
      </defs>
      <use xlink:href="#DejaVuSans-7a" transform="translate(0 0.171875)"/>
      <use xlink:href="#DejaVuSans-20" transform="translate(52.490234 0.171875)"/>
      <use xlink:href="#DejaVuSans-28" transform="translate(84.277344 0.171875)"/>
      <use xlink:href="#DejaVuSans-Oblique-c5" transform="translate(123.291016 0.171875)"/>
      <use xlink:href="#DejaVuSans-29" transform="translate(191.699219 0.171875)"/>
     </g>
    </g>
   </g>
   <g id="matplotlib.axis_2">
    <g id="ytick_1">
     <g id="line2d_7">
      <defs>
       <path id="m96e3cd136c" d="M 0 0 
L -3.5 0 
" style="stroke: #000000; stroke-width: 0.8"/>
      </defs>
      <g>
       <use xlink:href="#m96e3cd136c" x="54" y="232.108006" style="stroke: #000000; stroke-width: 0.8"/>
      </g>
     </g>
     <g id="text_8">
      <!-- −2 -->
      <g transform="translate(32.257812 235.907224)scale(0.1 -0.1)">
       <defs>
        <path id="DejaVuSans-2212" d="M 678 2272 
L 4684 2272 
L 4684 1741 
L 678 1741 
L 678 2272 
z
" transform="scale(0.015625)"/>
       </defs>
       <use xlink:href="#DejaVuSans-2212"/>
       <use xlink:href="#DejaVuSans-32" x="83.789062"/>
      </g>
     </g>
    </g>
    <g id="ytick_2">
     <g id="line2d_8">
      <g>
       <use xlink:href="#m96e3cd136c" x="54" y="183.408046" style="stroke: #000000; stroke-width: 0.8"/>
      </g>
     </g>
     <g id="text_9">
      <!-- 0 -->
      <g transform="translate(40.6375 187.207265)scale(0.1 -0.1)">
       <use xlink:href="#DejaVuSans-30"/>
      </g>
     </g>
    </g>
    <g id="ytick_3">
     <g id="line2d_9">
      <g>
       <use xlink:href="#m96e3cd136c" x="54" y="134.708086" style="stroke: #000000; stroke-width: 0.8"/>
      </g>
     </g>
     <g id="text_10">
      <!-- 2 -->
      <g transform="translate(40.6375 138.507305)scale(0.1 -0.1)">
       <use xlink:href="#DejaVuSans-32"/>
      </g>
     </g>
    </g>
    <g id="ytick_4">
     <g id="line2d_10">
      <g>
       <use xlink:href="#m96e3cd136c" x="54" y="86.008126" style="stroke: #000000; stroke-width: 0.8"/>
      </g>
     </g>
     <g id="text_11">
      <!-- 4 -->
      <g transform="translate(40.6375 89.807345)scale(0.1 -0.1)">
       <use xlink:href="#DejaVuSans-34"/>
      </g>
     </g>
    </g>
    <g id="ytick_5">
     <g id="line2d_11">
      <g>
       <use xlink:href="#m96e3cd136c" x="54" y="37.308167" style="stroke: #000000; stroke-width: 0.8"/>
      </g>
     </g>
     <g id="text_12">
      <!-- 6 -->
      <g transform="translate(40.6375 41.107385)scale(0.1 -0.1)">
       <use xlink:href="#DejaVuSans-36"/>
      </g>
     </g>
    </g>
    <g id="text_13">
     <!-- SLD ($10^{-6}/\AA^2$) -->
     <g transform="translate(25.34625 181.84)rotate(-90)scale(0.14 -0.14)">
      <defs>
       <path id="DejaVuSans-53" d="M 3425 4513 
L 3425 3897 
Q 3066 4069 2747 4153 
Q 2428 4238 2131 4238 
Q 1616 4238 1336 4038 
Q 1056 3838 1056 3469 
Q 1056 3159 1242 3001 
Q 1428 2844 1947 2747 
L 2328 2669 
Q 3034 2534 3370 2195 
Q 3706 1856 3706 1288 
Q 3706 609 3251 259 
Q 2797 -91 1919 -91 
Q 1588 -91 1214 -16 
Q 841 59 441 206 
L 441 856 
Q 825 641 1194 531 
Q 1563 422 1919 422 
Q 2459 422 2753 634 
Q 3047 847 3047 1241 
Q 3047 1584 2836 1778 
Q 2625 1972 2144 2069 
L 1759 2144 
Q 1053 2284 737 2584 
Q 422 2884 422 3419 
Q 422 4038 858 4394 
Q 1294 4750 2059 4750 
Q 2388 4750 2728 4690 
Q 3069 4631 3425 4513 
z
" transform="scale(0.015625)"/>
       <path id="DejaVuSans-4c" d="M 628 4666 
L 1259 4666 
L 1259 531 
L 3531 531 
L 3531 0 
L 628 0 
L 628 4666 
z
" transform="scale(0.015625)"/>
       <path id="DejaVuSans-44" d="M 1259 4147 
L 1259 519 
L 2022 519 
Q 2988 519 3436 956 
Q 3884 1394 3884 2338 
Q 3884 3275 3436 3711 
Q 2988 4147 2022 4147 
L 1259 4147 
z
M 628 4666 
L 1925 4666 
Q 3281 4666 3915 4102 
Q 4550 3538 4550 2338 
Q 4550 1131 3912 565 
Q 3275 0 1925 0 
L 628 0 
L 628 4666 
z
" transform="scale(0.015625)"/>
       <path id="DejaVuSans-2f" d="M 1625 4666 
L 2156 4666 
L 531 -594 
L 0 -594 
L 1625 4666 
z
" transform="scale(0.015625)"/>
      </defs>
      <use xlink:href="#DejaVuSans-53" transform="translate(0 0.171875)"/>
      <use xlink:href="#DejaVuSans-4c" transform="translate(63.476562 0.171875)"/>
      <use xlink:href="#DejaVuSans-44" transform="translate(119.189453 0.171875)"/>
      <use xlink:href="#DejaVuSans-20" transform="translate(196.191406 0.171875)"/>
      <use xlink:href="#DejaVuSans-28" transform="translate(227.978516 0.171875)"/>
      <use xlink:href="#DejaVuSans-31" transform="translate(266.992188 0.171875)"/>
      <use xlink:href="#DejaVuSans-30" transform="translate(330.615234 0.171875)"/>
      <use xlink:href="#DejaVuSans-2212" transform="translate(395.195312 38.453125)scale(0.7)"/>
      <use xlink:href="#DejaVuSans-36" transform="translate(453.847656 38.453125)scale(0.7)"/>
      <use xlink:href="#DejaVuSans-2f" transform="translate(501.118164 0.171875)"/>
      <use xlink:href="#DejaVuSans-Oblique-c5" transform="translate(534.80957 0.171875)"/>
      <use xlink:href="#DejaVuSans-32" transform="translate(613.023607 38.453125)scale(0.7)"/>
      <use xlink:href="#DejaVuSans-29" transform="translate(660.294115 0.171875)"/>
     </g>
    </g>
   </g>
   <g id="line2d_12">
    <path d="M 249.457286 31.859835 
L 247.045226 32.065303 
L 245.534643 32.408829 
L 244.340795 32.906081 
L 243.317497 33.569528 
L 242.342927 34.471514 
L 241.392721 35.662605 
L 240.418151 37.253926 
L 239.394853 39.363098 
L 238.249734 42.259965 
L 236.9097 46.290577 
L 234.911832 53.108479 
L 232.524136 61.083094 
L 231.379016 64.176231 
L 230.550632 65.844832 
L 229.917162 66.673846 
L 229.429877 66.983165 
L 229.040049 66.991678 
L 228.650221 66.763573 
L 228.236029 66.239557 
L 227.748744 65.226629 
L 227.188366 63.512008 
L 226.506167 60.644164 
L 225.653419 56.006056 
L 224.264657 46.988102 
L 222.705345 37.316012 
L 221.779504 32.892801 
L 220.975483 30.070883 
L 220.244556 28.275528 
L 219.562357 27.149268 
L 218.880158 26.427699 
L 218.149231 25.969876 
L 217.272118 25.688868 
L 216.005177 25.539609 
L 213.178925 25.49531 
L 125.053449 25.494548 
L 97.789858 25.602541 
L 96.76656 25.845501 
L 96.059997 26.236303 
L 95.475255 26.818446 
L 94.939242 27.676163 
L 94.403228 28.983664 
L 93.867215 30.912062 
L 93.306837 33.812024 
L 92.722095 38.074759 
L 92.088625 44.454343 
L 91.406426 53.735431 
L 90.651134 67.215624 
L 89.749657 87.63901 
L 88.531445 120.944712 
L 86.168113 186.337008 
L 85.193543 206.699153 
L 84.365159 219.578481 
L 83.634232 227.733599 
L 82.952033 233.033086 
L 82.318563 236.356336 
L 81.709456 238.432706 
L 81.173443 239.550986 
L 80.710522 240.06494 
L 80.345059 240.185358 
L 80.028323 240.070368 
L 79.687224 239.683739 
L 79.32176 238.903586 
L 78.907568 237.443008 
L 78.444647 234.879626 
L 77.957363 230.831393 
L 77.421349 224.426944 
L 76.812243 214.343408 
L 76.056951 197.766503 
L 74.838739 165.051612 
L 73.596163 133.705523 
L 72.840871 119.868775 
L 72.256129 112.835325 
L 71.841937 110.065283 
L 71.549566 109.32065 
L 71.403381 109.338148 
L 71.232831 109.685868 
L 70.964824 110.914432 
L 70.574996 113.979801 
L 69.649155 123.84647 
L 69.040049 128.92078 
L 68.577128 131.17881 
L 68.162936 132.238674 
L 67.748744 132.727263 
L 67.285823 132.930414 
L 67.090909 132.964487 
L 67.090909 132.964487 
" clip-path="url(#pa35dd6abbd)" style="fill: none; stroke: #1f77b4; stroke-width: 2; stroke-linecap: square"/>
   </g>
   <g id="line2d_13">
    <path d="M 315.996041 31.853948 
L 309.442059 32.050283 
L 305.446323 32.382882 
L 302.352063 32.857209 
L 299.720725 33.482069 
L 297.357393 34.27011 
L 295.140247 35.244378 
L 292.996193 36.431473 
L 290.852139 37.877001 
L 288.659357 39.626863 
L 286.296026 41.80461 
L 283.591594 44.613909 
L 279.961322 48.738307 
L 273.602254 55.986208 
L 270.82473 58.781222 
L 268.412669 60.899529 
L 266.171159 62.577282 
L 264.002741 63.927193 
L 261.834323 65.01895 
L 259.592813 65.900266 
L 257.180752 66.606277 
L 254.525049 67.148001 
L 251.406426 67.549277 
L 247.41069 67.824781 
L 245.388457 68.036493 
L 244.65753 68.335116 
L 244.121517 68.788797 
L 243.634232 69.497464 
L 243.146947 70.620892 
L 242.635298 72.400885 
L 242.07492 75.22487 
L 241.44145 79.64171 
L 240.63743 86.957943 
L 238.152277 110.848832 
L 237.470078 114.817974 
L 236.860972 117.157858 
L 236.300594 118.502755 
L 235.76458 119.266085 
L 235.179839 119.717951 
L 234.49764 119.957445 
L 233.547434 120.043808 
L 232.694686 119.924784 
L 232.183036 119.639581 
L 231.768844 119.13945 
L 231.379016 118.28207 
L 230.989188 116.84288 
L 230.574996 114.399563 
L 230.112076 110.181669 
L 229.600426 103.305048 
L 228.966956 91.464852 
L 227.870565 65.681188 
L 226.895995 45.059522 
L 226.262525 35.91707 
L 225.726511 30.991792 
L 225.239226 28.308385 
L 224.776306 26.870226 
L 224.313385 26.116791 
L 223.8261 25.743286 
L 223.19263 25.562466 
L 221.974418 25.501498 
L 208.135526 25.498426 
L 105.099132 25.607327 
L 103.661642 25.852326 
L 102.687072 26.237087 
L 101.907416 26.781568 
L 101.200853 27.557031 
L 100.543018 28.62092 
L 99.885183 30.129378 
L 99.227349 32.215382 
L 98.54515 35.149107 
L 97.838587 39.202872 
L 97.083295 44.898628 
L 96.279275 52.74201 
L 95.402162 63.598417 
L 94.427593 78.550773 
L 93.258109 100.166698 
L 91.60134 135.454278 
L 89.067459 189.114019 
L 87.87361 209.649872 
L 86.923405 222.42096 
L 86.168113 229.860793 
L 85.583371 233.730423 
L 85.120451 235.491373 
L 84.803716 235.980868 
L 84.608802 235.979314 
L 84.389523 235.693757 
L 84.097152 234.835808 
L 83.731689 232.985717 
L 83.268768 229.408828 
L 82.684026 223.025438 
L 81.90437 211.808815 
L 80.320694 184.725005 
L 79.199939 167.726759 
L 78.395919 158.636411 
L 77.689356 152.995519 
L 77.055885 149.581055 
L 76.446779 147.450934 
L 75.862037 146.174201 
L 75.252931 145.359788 
L 74.302726 144.526161 
L 73.571798 143.749658 
L 72.987056 142.782719 
L 72.329222 141.219611 
L 71.232831 137.891119 
L 70.282625 135.321491 
L 69.624791 134.151477 
L 69.040049 133.539165 
L 68.430943 133.213256 
L 67.626922 133.051802 
L 67.090909 133.019163 
L 67.090909 133.019163 
" clip-path="url(#pa35dd6abbd)" style="fill: none; stroke: #ff7f0e; stroke-width: 2; stroke-linecap: square"/>
   </g>
   <g id="line2d_14">
    <path d="M 302.644434 31.84885 
L 297.844678 32.039512 
L 294.945333 32.369139 
L 292.703822 32.843334 
L 290.803411 33.468352 
L 289.07355 34.268795 
L 287.416781 35.282683 
L 285.784376 36.546526 
L 284.103243 38.13719 
L 282.300289 40.162096 
L 280.253693 42.811731 
L 277.500533 46.778131 
L 272.530227 53.975508 
L 270.410538 56.616473 
L 268.558855 58.576653 
L 266.828993 60.087629 
L 265.147861 61.262734 
L 263.442363 62.182448 
L 261.663773 62.888402 
L 259.69027 63.427121 
L 257.40003 63.813826 
L 254.476321 64.068214 
L 250.090757 64.201995 
L 246.557941 64.35855 
L 245.753921 64.62694 
L 245.169179 65.053778 
L 244.65753 65.706514 
L 244.145881 66.747541 
L 243.634232 68.317728 
L 243.073854 70.809679 
L 242.464748 74.591474 
L 241.733821 80.664864 
L 240.734887 91.11748 
L 238.834475 111.255676 
L 238.05482 117.120751 
L 237.372621 120.691828 
L 236.763515 122.79099 
L 236.178773 124.048627 
L 235.618395 124.746334 
L 235.082382 125.083792 
L 234.522004 125.1774 
L 233.985991 125.040498 
L 233.498706 124.690507 
L 233.011421 124.048659 
L 232.524136 122.998099 
L 232.036851 121.386816 
L 231.525202 118.90122 
L 230.964824 115.014041 
L 230.331354 108.909381 
L 229.600426 99.510794 
L 228.625857 83.76169 
L 226.481803 48.235271 
L 225.677783 38.93568 
L 224.995584 33.424853 
L 224.386478 30.131502 
L 223.801736 28.104454 
L 223.241358 26.917818 
L 222.680981 26.229489 
L 222.071875 25.831731 
L 221.316583 25.61297 
L 220.049642 25.513486 
L 215.1037 25.498427 
L 105.074768 25.609267 
L 103.637277 25.858058 
L 102.662707 26.248251 
L 101.883052 26.799857 
L 101.176489 27.584783 
L 100.518654 28.660791 
L 99.860819 30.185243 
L 99.202985 32.291726 
L 98.520786 35.251899 
L 97.814223 39.338845 
L 97.058931 45.076245 
L 96.254911 52.969673 
L 95.377798 63.884466 
L 94.403228 78.900746 
L 93.233744 100.5815 
L 91.552612 136.454981 
L 89.067459 189.05357 
L 87.87361 209.609904 
L 86.923405 222.408455 
L 86.168113 229.884484 
L 85.559007 233.921387 
L 85.096086 235.666083 
L 84.779351 236.149906 
L 84.584437 236.147612 
L 84.365159 235.864137 
L 84.072788 235.014432 
L 83.707325 233.184782 
L 83.244404 229.652523 
L 82.659662 223.359561 
L 81.880006 212.326386 
L 80.174509 183.801848 
L 79.126846 168.594351 
L 78.322826 159.928744 
L 77.640627 154.750993 
L 77.007157 151.499874 
L 76.398051 149.480119 
L 75.813309 148.270747 
L 75.179839 147.464085 
L 73.449977 145.574645 
L 72.8896 144.401846 
L 72.231765 142.465589 
L 69.819705 134.72096 
L 69.234963 133.841596 
L 68.674585 133.375336 
L 68.01675 133.125394 
L 67.090909 133.022275 
L 67.090909 133.022275 
" clip-path="url(#pa35dd6abbd)" style="fill: none; stroke: #2ca02c; stroke-width: 2; stroke-linecap: square"/>
   </g>
   <g id="line2d_15">
    <path d="M 297.45485 31.850811 
L 293.166743 32.043925 
L 290.584133 32.372177 
L 288.5619 32.848556 
L 286.832039 33.483908 
L 285.272727 34.291848 
L 283.786508 35.311109 
L 282.300289 36.603979 
L 280.765342 38.243357 
L 279.132937 40.321315 
L 277.256891 43.087185 
L 274.771737 47.185903 
L 269.947617 55.206694 
L 267.998477 57.964122 
L 266.317344 59.972511 
L 264.733668 61.525027 
L 263.198721 62.72168 
L 261.663773 63.640881 
L 260.031369 64.35673 
L 258.252779 64.890024 
L 256.181818 65.272985 
L 253.526115 65.524691 
L 249.530379 65.655869 
L 245.144815 65.826425 
L 244.413888 66.104263 
L 243.877874 66.544436 
L 243.390589 67.247233 
L 242.903304 68.382849 
L 242.416019 70.115118 
L 241.880006 72.906275 
L 241.295264 77.202451 
L 240.588701 84.216121 
L 239.614131 96.465906 
L 237.859906 118.630592 
L 237.104614 125.327319 
L 236.471144 129.164958 
L 235.910766 131.34729 
L 235.399117 132.525555 
L 234.96056 133.037415 
L 234.570732 133.170211 
L 234.205269 133.048194 
L 233.815441 132.663896 
L 233.376884 131.903646 
L 232.8896 130.600239 
L 232.353586 128.504915 
L 231.768844 125.268271 
L 231.135374 120.449119 
L 230.404446 113.020638 
L 229.551698 101.88876 
L 228.309121 82.308428 
L 226.481803 53.857015 
L 225.555962 42.915421 
L 224.776306 36.197249 
L 224.094107 32.076666 
L 223.460637 29.47571 
L 222.85153 27.835688 
L 222.242424 26.80799 
L 221.633318 26.197545 
L 220.951119 25.825038 
L 220.074006 25.610482 
L 218.612152 25.513377 
L 212.813461 25.498427 
L 105.099132 25.608079 
L 103.661642 25.854546 
L 102.687072 26.241408 
L 101.907416 26.788642 
L 101.200853 27.56776 
L 100.543018 28.636326 
L 99.885183 30.150949 
L 99.227349 32.244839 
L 98.54515 35.188731 
L 97.838587 39.255229 
L 97.083295 44.966923 
L 96.279275 52.829393 
L 95.402162 63.707948 
L 94.427593 78.684335 
L 93.258109 100.324165 
L 91.60134 135.627506 
L 89.067459 189.260142 
L 87.87361 209.769018 
L 86.923405 222.520506 
L 86.168113 229.952419 
L 85.559007 233.948222 
L 85.120451 235.598116 
L 84.803716 236.101685 
L 84.608802 236.111669 
L 84.413888 235.886846 
L 84.145881 235.18693 
L 83.780417 233.493278 
L 83.317497 230.127778 
L 82.732755 224.022975 
L 81.977463 213.546231 
L 80.63743 191.142535 
L 79.346125 171.084314 
L 78.51774 161.433384 
L 77.811177 155.557982 
L 77.153342 151.842429 
L 76.544236 149.60675 
L 75.959494 148.255331 
L 75.350388 147.388256 
L 74.424547 146.524797 
L 73.69362 145.70923 
L 73.133242 144.727442 
L 72.524136 143.175187 
L 71.671387 140.285362 
L 70.355718 135.881502 
L 69.697883 134.451447 
L 69.113141 133.689149 
L 68.5284 133.287325 
L 67.821836 133.084769 
L 67.090909 133.02146 
L 67.090909 133.02146 
" clip-path="url(#pa35dd6abbd)" style="fill: none; stroke: #d62728; stroke-width: 2; stroke-linecap: square"/>
   </g>
   <g id="line2d_16">
    <path d="M 299.111619 31.8447 
L 293.312928 32.030926 
L 289.87757 32.354015 
L 287.221867 32.820616 
L 284.955992 33.44071 
L 282.909395 34.228151 
L 280.960256 35.215794 
L 279.03548 36.442712 
L 277.061977 37.969418 
L 274.942287 39.899147 
L 272.505863 42.430832 
L 268.948683 46.49079 
L 264.465662 51.545098 
L 262.004873 53.979516 
L 259.860819 55.795024 
L 257.862951 57.201115 
L 255.889447 58.318947 
L 253.891579 59.194982 
L 251.77189 59.879284 
L 249.432922 60.396725 
L 246.533577 60.795998 
L 244.974265 61.093997 
L 244.316431 61.44329 
L 243.804781 61.967445 
L 243.341861 62.765948 
L 242.87894 64.022251 
L 242.391655 66.023734 
L 241.855642 69.258386 
L 241.2709 74.243318 
L 240.564337 82.360244 
L 239.541039 97.127641 
L 238.030455 118.607914 
L 237.275164 126.271347 
L 236.641693 130.614474 
L 236.081316 133.022374 
L 235.594031 134.214351 
L 235.179839 134.69403 
L 234.838739 134.781552 
L 234.49764 134.625043 
L 234.107812 134.169692 
L 233.644891 133.253325 
L 233.108878 131.654882 
L 232.524136 129.171836 
L 231.890665 125.479061 
L 231.184102 119.972846 
L 230.380082 111.829577 
L 229.405512 99.498372 
L 227.773108 75.394835 
L 226.262525 54.40738 
L 225.287955 43.814106 
L 224.459571 37.098454 
L 223.728643 32.838805 
L 223.046444 30.065174 
L 222.38861 28.262818 
L 221.755139 27.133332 
L 221.097305 26.405142 
L 220.390742 25.956033 
L 219.537993 25.685227 
L 218.271052 25.541135 
L 215.322979 25.499124 
L 110.337445 25.498991 
L 105.026039 25.613432 
L 103.612913 25.863338 
L 102.662707 26.245161 
L 101.883052 26.794793 
L 101.176489 27.577098 
L 100.518654 28.649748 
L 99.860819 30.169765 
L 99.202985 32.270567 
L 98.520786 35.223396 
L 97.814223 39.301121 
L 97.058931 45.02693 
L 96.254911 52.906401 
L 95.377798 63.804861 
L 94.403228 78.803167 
L 93.233744 100.465489 
L 91.552612 136.325005 
L 89.067459 188.938292 
L 87.87361 209.514335 
L 86.923405 222.332979 
L 86.168113 229.827897 
L 85.559007 233.882251 
L 85.096086 235.64166 
L 84.779351 236.136257 
L 84.584437 236.140854 
L 84.389523 235.910805 
L 84.121517 235.204071 
L 83.756053 233.502095 
L 83.293132 230.128352 
L 82.70839 224.018298 
L 81.953099 213.54604 
L 80.588701 190.772736 
L 79.32176 171.198375 
L 78.493376 161.593964 
L 77.786813 155.752227 
L 77.128978 152.060916 
L 76.519872 149.841351 
L 75.93513 148.500123 
L 75.326024 147.638586 
L 74.375818 146.749912 
L 73.669255 145.941401 
L 73.108878 144.937079 
L 72.499772 143.349707 
L 71.647023 140.399816 
L 70.331354 135.918342 
L 69.673519 134.467567 
L 69.088777 133.695714 
L 68.504035 133.289585 
L 67.797472 133.085253 
L 67.090909 133.022527 
L 67.090909 133.022527 
" clip-path="url(#pa35dd6abbd)" style="fill: none; stroke: #9467bd; stroke-width: 2; stroke-linecap: square"/>
   </g>
   <g id="line2d_17">
    <path d="M 321.940917 31.816084 
L 307.395462 31.960739 
L 299.988732 32.251115 
L 294.165677 32.697061 
L 288.829907 33.328366 
L 283.372316 34.202079 
L 276.477235 35.549905 
L 265.050404 37.794136 
L 259.51972 38.624597 
L 254.208314 39.196148 
L 248.433988 39.587852 
L 245.217908 39.859823 
L 244.511345 40.149122 
L 243.975331 40.607707 
L 243.488046 41.340923 
L 243.025126 42.459587 
L 242.537841 44.253107 
L 242.001827 47.167551 
L 241.417085 51.682352 
L 240.710522 59.074096 
L 239.711588 72.272416 
L 238.127912 93.053375 
L 237.372621 100.099394 
L 236.73915 104.143042 
L 236.154408 106.558093 
L 235.618395 107.920495 
L 235.082382 108.714224 
L 234.522004 109.151756 
L 233.888534 109.353811 
L 233.230699 109.334323 
L 232.670321 109.097845 
L 232.207401 108.644831 
L 231.793208 107.914692 
L 231.354652 106.63617 
L 230.916096 104.627412 
L 230.428811 101.266449 
L 229.892797 95.908887 
L 229.259327 87.191747 
L 228.35785 71.288334 
L 226.822902 44.294107 
L 226.116339 35.809671 
L 225.531597 31.176976 
L 224.995584 28.524151 
L 224.483935 27.035638 
L 223.99665 26.249361 
L 223.485001 25.825694 
L 222.85153 25.602057 
L 221.803868 25.508243 
L 217.22339 25.497448 
L 104.831125 25.634677 
L 103.491092 25.900911 
L 102.56525 26.302505 
L 101.809959 26.865562 
L 101.12776 27.65011 
L 100.469925 28.754477 
L 99.812091 30.316275 
L 99.154256 32.470455 
L 98.472057 35.492062 
L 97.74113 39.820561 
L 96.985838 45.70369 
L 96.181818 53.771339 
L 95.304705 64.887996 
L 94.305771 80.541394 
L 93.111923 103.00606 
L 91.308969 141.819797 
L 89.091823 188.556228 
L 87.897975 209.204826 
L 86.947769 222.095834 
L 86.192478 229.65753 
L 85.583371 233.772544 
L 85.120451 235.582369 
L 84.803716 236.113482 
L 84.584437 236.128352 
L 84.365159 235.846089 
L 84.072788 234.998031 
L 83.707325 233.170448 
L 83.244404 229.640719 
L 82.659662 223.350577 
L 81.880006 212.319965 
L 80.198873 184.18915 
L 79.126846 168.582098 
L 78.322826 159.912407 
L 77.640627 154.731524 
L 77.007157 151.478062 
L 76.398051 149.456651 
L 75.813309 148.246238 
L 75.179839 147.439053 
L 73.449977 145.552653 
L 72.8896 144.382797 
L 72.231765 142.451055 
L 69.819705 134.719657 
L 69.234963 133.841152 
L 68.674585 133.375224 
L 68.01675 133.12539 
L 67.090909 133.022282 
L 67.090909 133.022282 
" clip-path="url(#pa35dd6abbd)" style="fill: none; stroke: #8c564b; stroke-width: 2; stroke-linecap: square"/>
   </g>
   <g id="line2d_18">
    <path d="M 323.4515 31.807349 
L 298.551241 31.92976 
L 286.344754 32.220625 
L 269.143597 32.902475 
L 256.181818 33.296491 
L 242.342927 33.686408 
L 241.587635 34.022696 
L 241.002893 34.523088 
L 240.46688 35.275998 
L 239.930866 36.428396 
L 239.370489 38.198134 
L 238.761383 40.935105 
L 238.103548 44.981739 
L 237.323892 51.262008 
L 236.227501 62.130824 
L 234.570732 78.378335 
L 233.839805 83.466059 
L 233.279427 86.010466 
L 232.840871 87.118089 
L 232.524136 87.437706 
L 232.280493 87.418146 
L 232.012487 87.141447 
L 231.671387 86.424872 
L 231.208467 84.857331 
L 230.59936 81.896732 
L 229.79534 76.771429 
L 228.577128 67.365983 
L 225.77524 45.353231 
L 224.678849 38.696345 
L 223.753007 34.344928 
L 222.900259 31.341281 
L 222.096239 29.288201 
L 221.340947 27.928383 
L 220.585656 26.999564 
L 219.781635 26.360843 
L 218.880158 25.938383 
L 217.759403 25.674801 
L 216.102634 25.537326 
L 212.106898 25.498824 
L 105.927516 25.550323 
L 104.100198 25.745922 
L 103.003807 26.077897 
L 102.175423 26.554453 
L 101.444495 27.238386 
L 100.762296 28.202036 
L 100.104462 29.5399 
L 99.446627 31.406352 
L 98.764428 34.054982 
L 98.057865 37.749022 
L 97.326938 42.798242 
L 96.547282 49.787629 
L 95.694533 59.549392 
L 94.744328 73.172033 
L 93.647937 92.335591 
L 92.23481 121.29917 
L 88.653266 196.534533 
L 87.556875 214.148078 
L 86.679762 225.015782 
L 85.973199 231.325751 
L 85.412822 234.57151 
L 84.99863 235.868886 
L 84.706259 236.182231 
L 84.511345 236.102852 
L 84.292066 235.730946 
L 83.975331 234.656034 
L 83.585503 232.45319 
L 83.073854 228.114772 
L 82.440384 220.650975 
L 81.563271 207.377717 
L 79.078118 168.111482 
L 78.274098 159.588363 
L 77.591899 154.5225 
L 76.958429 151.356157 
L 76.373687 149.458928 
L 75.788945 148.265236 
L 75.155474 147.467896 
L 73.449977 145.607311 
L 72.8896 144.439536 
L 72.231765 142.507855 
L 69.79534 134.693239 
L 69.210598 133.825151 
L 68.650221 133.366758 
L 67.992386 133.122077 
L 67.090909 133.02266 
L 67.090909 133.02266 
" clip-path="url(#pa35dd6abbd)" style="fill: none; stroke: #e377c2; stroke-width: 2; stroke-linecap: square"/>
   </g>
   <g id="line2d_19">
    <path d="M 328.909091 31.865062 
L 321.015075 32.072678 
L 316.069134 32.416024 
L 312.243947 32.896913 
L 309.003502 33.52253 
L 306.104157 34.305288 
L 303.42409 35.256845 
L 300.865844 36.40037 
L 298.356327 37.767581 
L 295.84681 39.391013 
L 293.2642 41.331331 
L 290.535404 43.664961 
L 287.489874 46.572236 
L 283.762144 50.457478 
L 272.116035 62.829923 
L 269.070504 65.599378 
L 266.317344 67.806924 
L 263.71037 69.614914 
L 261.176489 71.104796 
L 258.642607 72.339933 
L 256.035633 73.364561 
L 253.282473 74.206218 
L 250.310035 74.880404 
L 246.947769 75.40926 
L 243.877874 75.898242 
L 243.561139 76.263603 
L 243.293132 76.930058 
L 243.000761 78.315206 
L 242.659662 81.229258 
L 242.24547 87.054842 
L 240.63743 112.783449 
L 240.271966 114.6295 
L 239.930866 115.388698 
L 239.565403 115.69296 
L 239.029389 115.8095 
L 236.763515 115.896809 
L 233.669255 115.872097 
L 232.962692 115.651212 
L 232.475407 115.272677 
L 232.036851 114.632209 
L 231.622659 113.61486 
L 231.184102 111.903437 
L 230.721182 109.137006 
L 230.209533 104.627697 
L 229.624791 97.335122 
L 228.893863 85.14575 
L 226.335617 39.337342 
L 225.702147 33.091673 
L 225.141769 29.584754 
L 224.63012 27.650411 
L 224.142835 26.588298 
L 223.65555 26.012323 
L 223.095173 25.694794 
L 222.315517 25.539129 
L 220.61002 25.494877 
L 144.837216 25.498426 
L 105.074768 25.608267 
L 103.637277 25.854782 
L 102.662707 26.241376 
L 101.883052 26.787865 
L 101.176489 27.565473 
L 100.518654 28.631401 
L 99.860819 30.141508 
L 99.202985 32.228081 
L 98.520786 35.160145 
L 97.814223 39.208101 
L 97.058931 44.890493 
L 96.254911 52.707848 
L 95.377798 63.516856 
L 94.378864 78.795806 
L 93.20938 100.337628 
L 91.503883 136.440493 
L 89.067459 187.435594 
L 87.87361 207.752989 
L 86.947769 220.063342 
L 86.192478 227.400435 
L 85.607736 231.144675 
L 85.169179 232.70623 
L 84.876808 233.103185 
L 84.681894 233.066618 
L 84.462616 232.72781 
L 84.170245 231.772857 
L 83.780417 229.586073 
L 83.293132 225.381477 
L 82.684026 217.938775 
L 81.880006 205.014758 
L 78.68829 150.003761 
L 77.957363 142.598645 
L 77.299528 138.01579 
L 76.690422 135.214904 
L 76.10568 133.510315 
L 75.545302 132.517724 
L 74.984925 131.947297 
L 74.375818 131.636361 
L 73.669255 131.531884 
L 72.840871 131.644966 
L 71.793208 132.031069 
L 69.819705 132.791285 
L 68.625857 132.961022 
L 67.090909 133.001278 
L 67.090909 133.001278 
" clip-path="url(#pa35dd6abbd)" style="fill: none; stroke: #7f7f7f; stroke-width: 2; stroke-linecap: square"/>
   </g>
   <g id="patch_3">
    <path d="M 54 250.92 
L 54 14.76 
" style="fill: none; stroke: #000000; stroke-width: 0.8; stroke-linejoin: miter; stroke-linecap: square"/>
   </g>
   <g id="patch_4">
    <path d="M 342 250.92 
L 342 14.76 
" style="fill: none; stroke: #000000; stroke-width: 0.8; stroke-linejoin: miter; stroke-linecap: square"/>
   </g>
   <g id="patch_5">
    <path d="M 54 250.92 
L 342 250.92 
" style="fill: none; stroke: #000000; stroke-width: 0.8; stroke-linejoin: miter; stroke-linecap: square"/>
   </g>
   <g id="patch_6">
    <path d="M 54 14.76 
L 342 14.76 
" style="fill: none; stroke: #000000; stroke-width: 0.8; stroke-linejoin: miter; stroke-linecap: square"/>
   </g>
   <g id="legend_1">
    <g id="line2d_20">
     <path d="M 271.827187 180.524062 
L 277.827187 180.524062 
L 283.827187 180.524062 
" style="fill: none; stroke: #7f7f7f; stroke-width: 2; stroke-linecap: square"/>
    </g>
    <g id="text_14">
     <!-- Final state -->
     <g transform="translate(288.627187 182.624062)scale(0.06 -0.06)">
      <defs>
       <path id="DejaVuSans-46" d="M 628 4666 
L 3309 4666 
L 3309 4134 
L 1259 4134 
L 1259 2759 
L 3109 2759 
L 3109 2228 
L 1259 2228 
L 1259 0 
L 628 0 
L 628 4666 
z
" transform="scale(0.015625)"/>
       <path id="DejaVuSans-69" d="M 603 3500 
L 1178 3500 
L 1178 0 
L 603 0 
L 603 3500 
z
M 603 4863 
L 1178 4863 
L 1178 4134 
L 603 4134 
L 603 4863 
z
" transform="scale(0.015625)"/>
       <path id="DejaVuSans-6e" d="M 3513 2113 
L 3513 0 
L 2938 0 
L 2938 2094 
Q 2938 2591 2744 2837 
Q 2550 3084 2163 3084 
Q 1697 3084 1428 2787 
Q 1159 2491 1159 1978 
L 1159 0 
L 581 0 
L 581 3500 
L 1159 3500 
L 1159 2956 
Q 1366 3272 1645 3428 
Q 1925 3584 2291 3584 
Q 2894 3584 3203 3211 
Q 3513 2838 3513 2113 
z
" transform="scale(0.015625)"/>
       <path id="DejaVuSans-61" d="M 2194 1759 
Q 1497 1759 1228 1600 
Q 959 1441 959 1056 
Q 959 750 1161 570 
Q 1363 391 1709 391 
Q 2188 391 2477 730 
Q 2766 1069 2766 1631 
L 2766 1759 
L 2194 1759 
z
M 3341 1997 
L 3341 0 
L 2766 0 
L 2766 531 
Q 2569 213 2275 61 
Q 1981 -91 1556 -91 
Q 1019 -91 701 211 
Q 384 513 384 1019 
Q 384 1609 779 1909 
Q 1175 2209 1959 2209 
L 2766 2209 
L 2766 2266 
Q 2766 2663 2505 2880 
Q 2244 3097 1772 3097 
Q 1472 3097 1187 3025 
Q 903 2953 641 2809 
L 641 3341 
Q 956 3463 1253 3523 
Q 1550 3584 1831 3584 
Q 2591 3584 2966 3190 
Q 3341 2797 3341 1997 
z
" transform="scale(0.015625)"/>
       <path id="DejaVuSans-6c" d="M 603 4863 
L 1178 4863 
L 1178 0 
L 603 0 
L 603 4863 
z
" transform="scale(0.015625)"/>
       <path id="DejaVuSans-73" d="M 2834 3397 
L 2834 2853 
Q 2591 2978 2328 3040 
Q 2066 3103 1784 3103 
Q 1356 3103 1142 2972 
Q 928 2841 928 2578 
Q 928 2378 1081 2264 
Q 1234 2150 1697 2047 
L 1894 2003 
Q 2506 1872 2764 1633 
Q 3022 1394 3022 966 
Q 3022 478 2636 193 
Q 2250 -91 1575 -91 
Q 1294 -91 989 -36 
Q 684 19 347 128 
L 347 722 
Q 666 556 975 473 
Q 1284 391 1588 391 
Q 1994 391 2212 530 
Q 2431 669 2431 922 
Q 2431 1156 2273 1281 
Q 2116 1406 1581 1522 
L 1381 1569 
Q 847 1681 609 1914 
Q 372 2147 372 2553 
Q 372 3047 722 3315 
Q 1072 3584 1716 3584 
Q 2034 3584 2315 3537 
Q 2597 3491 2834 3397 
z
" transform="scale(0.015625)"/>
       <path id="DejaVuSans-74" d="M 1172 4494 
L 1172 3500 
L 2356 3500 
L 2356 3053 
L 1172 3053 
L 1172 1153 
Q 1172 725 1289 603 
Q 1406 481 1766 481 
L 2356 481 
L 2356 0 
L 1766 0 
Q 1100 0 847 248 
Q 594 497 594 1153 
L 594 3053 
L 172 3053 
L 172 3500 
L 594 3500 
L 594 4494 
L 1172 4494 
z
" transform="scale(0.015625)"/>
       <path id="DejaVuSans-65" d="M 3597 1894 
L 3597 1613 
L 953 1613 
Q 991 1019 1311 708 
Q 1631 397 2203 397 
Q 2534 397 2845 478 
Q 3156 559 3463 722 
L 3463 178 
Q 3153 47 2828 -22 
Q 2503 -91 2169 -91 
Q 1331 -91 842 396 
Q 353 884 353 1716 
Q 353 2575 817 3079 
Q 1281 3584 2069 3584 
Q 2775 3584 3186 3129 
Q 3597 2675 3597 1894 
z
M 3022 2063 
Q 3016 2534 2758 2815 
Q 2500 3097 2075 3097 
Q 1594 3097 1305 2825 
Q 1016 2553 972 2059 
L 3022 2063 
z
" transform="scale(0.015625)"/>
      </defs>
      <use xlink:href="#DejaVuSans-46"/>
      <use xlink:href="#DejaVuSans-69" x="50.269531"/>
      <use xlink:href="#DejaVuSans-6e" x="78.052734"/>
      <use xlink:href="#DejaVuSans-61" x="141.431641"/>
      <use xlink:href="#DejaVuSans-6c" x="202.710938"/>
      <use xlink:href="#DejaVuSans-20" x="230.494141"/>
      <use xlink:href="#DejaVuSans-73" x="262.28125"/>
      <use xlink:href="#DejaVuSans-74" x="314.380859"/>
      <use xlink:href="#DejaVuSans-61" x="353.589844"/>
      <use xlink:href="#DejaVuSans-74" x="414.869141"/>
      <use xlink:href="#DejaVuSans-65" x="454.078125"/>
     </g>
    </g>
    <g id="line2d_21">
     <path d="M 271.827187 189.330937 
L 277.827187 189.330937 
L 283.827187 189.330937 
" style="fill: none; stroke: #e377c2; stroke-width: 2; stroke-linecap: square"/>
    </g>
    <g id="text_15">
     <!-- 90 &lt; t &lt; 120 s -->
     <g transform="translate(288.627187 191.430937)scale(0.06 -0.06)">
      <defs>
       <path id="DejaVuSans-39" d="M 703 97 
L 703 672 
Q 941 559 1184 500 
Q 1428 441 1663 441 
Q 2288 441 2617 861 
Q 2947 1281 2994 2138 
Q 2813 1869 2534 1725 
Q 2256 1581 1919 1581 
Q 1219 1581 811 2004 
Q 403 2428 403 3163 
Q 403 3881 828 4315 
Q 1253 4750 1959 4750 
Q 2769 4750 3195 4129 
Q 3622 3509 3622 2328 
Q 3622 1225 3098 567 
Q 2575 -91 1691 -91 
Q 1453 -91 1209 -44 
Q 966 3 703 97 
z
M 1959 2075 
Q 2384 2075 2632 2365 
Q 2881 2656 2881 3163 
Q 2881 3666 2632 3958 
Q 2384 4250 1959 4250 
Q 1534 4250 1286 3958 
Q 1038 3666 1038 3163 
Q 1038 2656 1286 2365 
Q 1534 2075 1959 2075 
z
" transform="scale(0.015625)"/>
       <path id="DejaVuSans-3c" d="M 4684 3150 
L 1459 2003 
L 4684 863 
L 4684 294 
L 678 1747 
L 678 2266 
L 4684 3719 
L 4684 3150 
z
" transform="scale(0.015625)"/>
      </defs>
      <use xlink:href="#DejaVuSans-39"/>
      <use xlink:href="#DejaVuSans-30" x="63.623047"/>
      <use xlink:href="#DejaVuSans-20" x="127.246094"/>
      <use xlink:href="#DejaVuSans-3c" x="159.033203"/>
      <use xlink:href="#DejaVuSans-20" x="242.822266"/>
      <use xlink:href="#DejaVuSans-74" x="274.609375"/>
      <use xlink:href="#DejaVuSans-20" x="313.818359"/>
      <use xlink:href="#DejaVuSans-3c" x="345.605469"/>
      <use xlink:href="#DejaVuSans-20" x="429.394531"/>
      <use xlink:href="#DejaVuSans-31" x="461.181641"/>
      <use xlink:href="#DejaVuSans-32" x="524.804688"/>
      <use xlink:href="#DejaVuSans-30" x="588.427734"/>
      <use xlink:href="#DejaVuSans-20" x="652.050781"/>
      <use xlink:href="#DejaVuSans-73" x="683.837891"/>
     </g>
    </g>
    <g id="line2d_22">
     <path d="M 271.827187 198.137812 
L 277.827187 198.137812 
L 283.827187 198.137812 
" style="fill: none; stroke: #8c564b; stroke-width: 2; stroke-linecap: square"/>
    </g>
    <g id="text_16">
     <!-- 120 &lt; t &lt; 150 s -->
     <g transform="translate(288.627187 200.237812)scale(0.06 -0.06)">
      <defs>
       <path id="DejaVuSans-35" d="M 691 4666 
L 3169 4666 
L 3169 4134 
L 1269 4134 
L 1269 2991 
Q 1406 3038 1543 3061 
Q 1681 3084 1819 3084 
Q 2600 3084 3056 2656 
Q 3513 2228 3513 1497 
Q 3513 744 3044 326 
Q 2575 -91 1722 -91 
Q 1428 -91 1123 -41 
Q 819 9 494 109 
L 494 744 
Q 775 591 1075 516 
Q 1375 441 1709 441 
Q 2250 441 2565 725 
Q 2881 1009 2881 1497 
Q 2881 1984 2565 2268 
Q 2250 2553 1709 2553 
Q 1456 2553 1204 2497 
Q 953 2441 691 2322 
L 691 4666 
z
" transform="scale(0.015625)"/>
      </defs>
      <use xlink:href="#DejaVuSans-31"/>
      <use xlink:href="#DejaVuSans-32" x="63.623047"/>
      <use xlink:href="#DejaVuSans-30" x="127.246094"/>
      <use xlink:href="#DejaVuSans-20" x="190.869141"/>
      <use xlink:href="#DejaVuSans-3c" x="222.65625"/>
      <use xlink:href="#DejaVuSans-20" x="306.445312"/>
      <use xlink:href="#DejaVuSans-74" x="338.232422"/>
      <use xlink:href="#DejaVuSans-20" x="377.441406"/>
      <use xlink:href="#DejaVuSans-3c" x="409.228516"/>
      <use xlink:href="#DejaVuSans-20" x="493.017578"/>
      <use xlink:href="#DejaVuSans-31" x="524.804688"/>
      <use xlink:href="#DejaVuSans-35" x="588.427734"/>
      <use xlink:href="#DejaVuSans-30" x="652.050781"/>
      <use xlink:href="#DejaVuSans-20" x="715.673828"/>
      <use xlink:href="#DejaVuSans-73" x="747.460938"/>
     </g>
    </g>
    <g id="line2d_23">
     <path d="M 271.827187 206.944687 
L 277.827187 206.944687 
L 283.827187 206.944687 
" style="fill: none; stroke: #9467bd; stroke-width: 2; stroke-linecap: square"/>
    </g>
    <g id="text_17">
     <!-- 150 &lt; t &lt; 180 s -->
     <g transform="translate(288.627187 209.044687)scale(0.06 -0.06)">
      <use xlink:href="#DejaVuSans-31"/>
      <use xlink:href="#DejaVuSans-35" x="63.623047"/>
      <use xlink:href="#DejaVuSans-30" x="127.246094"/>
      <use xlink:href="#DejaVuSans-20" x="190.869141"/>
      <use xlink:href="#DejaVuSans-3c" x="222.65625"/>
      <use xlink:href="#DejaVuSans-20" x="306.445312"/>
      <use xlink:href="#DejaVuSans-74" x="338.232422"/>
      <use xlink:href="#DejaVuSans-20" x="377.441406"/>
      <use xlink:href="#DejaVuSans-3c" x="409.228516"/>
      <use xlink:href="#DejaVuSans-20" x="493.017578"/>
      <use xlink:href="#DejaVuSans-31" x="524.804688"/>
      <use xlink:href="#DejaVuSans-38" x="588.427734"/>
      <use xlink:href="#DejaVuSans-30" x="652.050781"/>
      <use xlink:href="#DejaVuSans-20" x="715.673828"/>
      <use xlink:href="#DejaVuSans-73" x="747.460938"/>
     </g>
    </g>
    <g id="line2d_24">
     <path d="M 271.827187 215.751563 
L 277.827187 215.751563 
L 283.827187 215.751563 
" style="fill: none; stroke: #d62728; stroke-width: 2; stroke-linecap: square"/>
    </g>
    <g id="text_18">
     <!-- 180 &lt; t &lt; 210 s -->
     <g transform="translate(288.627187 217.851562)scale(0.06 -0.06)">
      <use xlink:href="#DejaVuSans-31"/>
      <use xlink:href="#DejaVuSans-38" x="63.623047"/>
      <use xlink:href="#DejaVuSans-30" x="127.246094"/>
      <use xlink:href="#DejaVuSans-20" x="190.869141"/>
      <use xlink:href="#DejaVuSans-3c" x="222.65625"/>
      <use xlink:href="#DejaVuSans-20" x="306.445312"/>
      <use xlink:href="#DejaVuSans-74" x="338.232422"/>
      <use xlink:href="#DejaVuSans-20" x="377.441406"/>
      <use xlink:href="#DejaVuSans-3c" x="409.228516"/>
      <use xlink:href="#DejaVuSans-20" x="493.017578"/>
      <use xlink:href="#DejaVuSans-32" x="524.804688"/>
      <use xlink:href="#DejaVuSans-31" x="588.427734"/>
      <use xlink:href="#DejaVuSans-30" x="652.050781"/>
      <use xlink:href="#DejaVuSans-20" x="715.673828"/>
      <use xlink:href="#DejaVuSans-73" x="747.460938"/>
     </g>
    </g>
    <g id="line2d_25">
     <path d="M 271.827187 224.558437 
L 277.827187 224.558437 
L 283.827187 224.558437 
" style="fill: none; stroke: #2ca02c; stroke-width: 2; stroke-linecap: square"/>
    </g>
    <g id="text_19">
     <!-- 210 &lt; t &lt; 240 s -->
     <g transform="translate(288.627187 226.658437)scale(0.06 -0.06)">
      <use xlink:href="#DejaVuSans-32"/>
      <use xlink:href="#DejaVuSans-31" x="63.623047"/>
      <use xlink:href="#DejaVuSans-30" x="127.246094"/>
      <use xlink:href="#DejaVuSans-20" x="190.869141"/>
      <use xlink:href="#DejaVuSans-3c" x="222.65625"/>
      <use xlink:href="#DejaVuSans-20" x="306.445312"/>
      <use xlink:href="#DejaVuSans-74" x="338.232422"/>
      <use xlink:href="#DejaVuSans-20" x="377.441406"/>
      <use xlink:href="#DejaVuSans-3c" x="409.228516"/>
      <use xlink:href="#DejaVuSans-20" x="493.017578"/>
      <use xlink:href="#DejaVuSans-32" x="524.804688"/>
      <use xlink:href="#DejaVuSans-34" x="588.427734"/>
      <use xlink:href="#DejaVuSans-30" x="652.050781"/>
      <use xlink:href="#DejaVuSans-20" x="715.673828"/>
      <use xlink:href="#DejaVuSans-73" x="747.460938"/>
     </g>
    </g>
    <g id="line2d_26">
     <path d="M 271.827187 233.365312 
L 277.827187 233.365312 
L 283.827187 233.365312 
" style="fill: none; stroke: #ff7f0e; stroke-width: 2; stroke-linecap: square"/>
    </g>
    <g id="text_20">
     <!-- 240 &lt; t &lt; 270 s -->
     <g transform="translate(288.627187 235.465312)scale(0.06 -0.06)">
      <defs>
       <path id="DejaVuSans-37" d="M 525 4666 
L 3525 4666 
L 3525 4397 
L 1831 0 
L 1172 0 
L 2766 4134 
L 525 4134 
L 525 4666 
z
" transform="scale(0.015625)"/>
      </defs>
      <use xlink:href="#DejaVuSans-32"/>
      <use xlink:href="#DejaVuSans-34" x="63.623047"/>
      <use xlink:href="#DejaVuSans-30" x="127.246094"/>
      <use xlink:href="#DejaVuSans-20" x="190.869141"/>
      <use xlink:href="#DejaVuSans-3c" x="222.65625"/>
      <use xlink:href="#DejaVuSans-20" x="306.445312"/>
      <use xlink:href="#DejaVuSans-74" x="338.232422"/>
      <use xlink:href="#DejaVuSans-20" x="377.441406"/>
      <use xlink:href="#DejaVuSans-3c" x="409.228516"/>
      <use xlink:href="#DejaVuSans-20" x="493.017578"/>
      <use xlink:href="#DejaVuSans-32" x="524.804688"/>
      <use xlink:href="#DejaVuSans-37" x="588.427734"/>
      <use xlink:href="#DejaVuSans-30" x="652.050781"/>
      <use xlink:href="#DejaVuSans-20" x="715.673828"/>
      <use xlink:href="#DejaVuSans-73" x="747.460938"/>
     </g>
    </g>
    <g id="line2d_27">
     <path d="M 271.827187 242.172187 
L 277.827187 242.172187 
L 283.827187 242.172187 
" style="fill: none; stroke: #1f77b4; stroke-width: 2; stroke-linecap: square"/>
    </g>
    <g id="text_21">
     <!-- Initial state -->
     <g transform="translate(288.627187 244.272187)scale(0.06 -0.06)">
      <defs>
       <path id="DejaVuSans-49" d="M 628 4666 
L 1259 4666 
L 1259 0 
L 628 0 
L 628 4666 
z
" transform="scale(0.015625)"/>
      </defs>
      <use xlink:href="#DejaVuSans-49"/>
      <use xlink:href="#DejaVuSans-6e" x="29.492188"/>
      <use xlink:href="#DejaVuSans-69" x="92.871094"/>
      <use xlink:href="#DejaVuSans-74" x="120.654297"/>
      <use xlink:href="#DejaVuSans-69" x="159.863281"/>
      <use xlink:href="#DejaVuSans-61" x="187.646484"/>
      <use xlink:href="#DejaVuSans-6c" x="248.925781"/>
      <use xlink:href="#DejaVuSans-20" x="276.708984"/>
      <use xlink:href="#DejaVuSans-73" x="308.496094"/>
      <use xlink:href="#DejaVuSans-74" x="360.595703"/>
      <use xlink:href="#DejaVuSans-61" x="399.804688"/>
      <use xlink:href="#DejaVuSans-74" x="461.083984"/>
      <use xlink:href="#DejaVuSans-65" x="500.292969"/>
     </g>
    </g>
   </g>
  </g>
 </g>
 <defs>
  <clipPath id="pa35dd6abbd">
   <rect x="54" y="14.76" width="288" height="236.16"/>
  </clipPath>
 </defs>
</svg>
